<?xml version="1.0"?>
<svg xmlns:rdf="http://www.w3.org/1999/02/22-rdf-syntax-ns#" xmlns="http://www.w3.org/2000/svg" xmlns:cc="http://web.resource.org/cc/" xmlns:xlink="http://www.w3.org/1999/xlink" xmlns:dc="http://purl.org/dc/elements/1.1/" xmlns:svg="http://www.w3.org/2000/svg" id="Layer_1" style="enable-background:new 0 0 310.258 254.527" xml:space="preserve" viewBox="0 0 310.258 254.527" version="1.1" y="0px" x="0px">
<path clip-rule="evenodd" d="m88.069 24.812c1.034 0.041 2.352-0.199 2.875 0.36v1.796c-0.523 0.196-1.859-0.421-1.797 0.36-0.979-0.532-1.628-1.389-1.078-2.516z" fill-rule="evenodd"/>
<path clip-rule="evenodd" d="m90.584 28.047h2.516c0.174 1.372-0.103 2.293-0.718 2.875-0.848-0.465-0.67 0.046-1.797-0.36-0.001-0.838-0.001-1.678-0.001-2.515z" fill-rule="evenodd"/>
<path clip-rule="evenodd" d="m82.317 37.033c1.518 0.12 1.872 1.802 1.438 2.875-1.566 0.485-1.3-0.857-2.156-1.079-0.267-1.106 0.986-0.691 0.718-1.796z" fill-rule="evenodd"/>
<path clip-rule="evenodd" d="m149.89 38.829c1.059 0.14 0.703 1.693 1.438 2.155-0.232 0.366-0.826 0.372-0.718 1.08-2.002-0.948-2.025-0.216-4.312 0-0.414-0.424-0.408-1.27-0.36-2.156 2.46 0.436 2.8-1.1 3.95-1.079z" fill-rule="evenodd"/>
<path clip-rule="evenodd" d="m164.26 39.548c0.117 0.843 0.567 1.349 0.359 2.516h-1.796c-0.61-1.217-0.33-2.721 1.44-2.516z" fill-rule="evenodd"/>
<path clip-rule="evenodd" d="m76.927 39.908c1.162 0.395 1.972 1.144 1.797 2.875-1.136 0.562-1.578-0.199-2.875-0.359-0.367-1.566 0.743-1.653 1.078-2.516z" fill-rule="evenodd"/>
<path clip-rule="evenodd" d="m84.834 39.908h2.515c0.146 1.702-0.776 2.337-2.515 2.156v-2.156z" fill-rule="evenodd"/>
<path clip-rule="evenodd" d="m153.48 39.908c0.598-0.003 1.198 0 1.797 0 0.539 1.141 0.539 2.925-1.08 2.875-0.62-0.582-0.89-1.504-0.72-2.875z" fill-rule="evenodd"/>
<path clip-rule="evenodd" d="m70.817 40.268c1.249 0.187 1.67 1.202 2.516 1.796-0.19 0.29-0.375 0.582-0.358 1.079-0.464 0.494-1.562 0.354-2.517 0.357 0.016-0.614-0.266-0.93-0.718-1.076 0.142-0.937 1.071-1.086 1.077-2.156z" fill-rule="evenodd"/>
<path clip-rule="evenodd" d="m79.802 42.063c1.314 0.123 2.838 0.038 2.875 1.436-0.224 1.617-1.637 1.249-2.875 1.079v-2.515z" fill-rule="evenodd"/>
<path clip-rule="evenodd" d="m141.26 43.143c1.372-0.175 2.294 0.1 2.875 0.717-0.275 1.044-0.569 2.068-1.438 2.515 1.19 1.065 1.19 2.533 0 3.595-0.75-0.567-1.803-0.831-1.797-2.156 0.481-0.453 0.707-1.079 1.438-0.359 0.29-2.086-1.71-1.888-1.08-4.312z" fill-rule="evenodd"/>
<path clip-rule="evenodd" d="m145.57 43.143c0.714 0.597 0.458-0.035 1.438 0 0.005 0.714 0.981 0.457 0.72 1.436 0.965 0.249 0.695-0.743 1.078-1.079 1.853 0.123 2.604 2.249 1.797 3.955-2.142 0.465-2.006-1.349-2.517-2.516-0.945-0.105-0.282 1.395-1.438 1.079 0.362-1.082-0.8-0.637-1.438-0.719-0.25-1.1 0.37-1.311 0.36-2.156z" fill-rule="evenodd"/>
<path clip-rule="evenodd" d="m161.39 43.5c1.234-0.035 2.58-0.184 2.872 0.72-0.152 0.564-1.129 0.307-0.72 1.439h-1.796c-0.41-0.428-0.4-1.273-0.35-2.159z" fill-rule="evenodd"/>
<path clip-rule="evenodd" d="m156.72 43.859h1.796c0.497 0.465 0.356 1.562 0.359 2.515-1.7 1.024-3.14-0.871-2.16-2.515z" fill-rule="evenodd"/>
<path clip-rule="evenodd" d="m153.48 44.579c1.338-0.021 1.037 1.6 1.078 2.875-0.569 0.029-1.37-0.173-1.438 0.359-0.731-0.345-0.776-1.38-0.718-2.515 0.72 0.123 1.13-0.073 1.08-0.719z" fill-rule="evenodd"/>
<path clip-rule="evenodd" d="m139.46 47.813v1.796c-1.886-0.208-1.164 2.191-1.797 3.235-0.819 0.495-1.35-0.924-1.438 0-0.861 0.144 0.2-1.635-1.078-1.076 0.345-1.448 1.375-1.138 2.157-1.439 0.262-0.98-0.715-0.723-0.719-1.436-0.688 1.073-1.031 0.26-2.156 0.716-1.83-3.351 2.72-1.801 5.04-1.796z" fill-rule="evenodd"/>
<path clip-rule="evenodd" d="m147.01 47.094c0.556 0.523 0.317 1.84 0.36 2.875-3.28 0.951-3.91-3.685-0.36-2.875z" fill-rule="evenodd"/>
<path clip-rule="evenodd" d="m156.72 48.533c1.418 0.018 2.138 0.737 2.155 2.156-0.798-0.199-0.512 0.687-1.079 0.719-0.644 0.044-0.755-0.441-1.437-0.36-0.21-1.167 0.24-1.673 0.36-2.515z" fill-rule="evenodd"/>
<path clip-rule="evenodd" d="m129.76 48.893c1.574 0.284 1.676 2.231 0.718 3.235-1.015 0.295-0.93-0.509-1.797-0.36-0.36-1.685 0.59-2.044 1.08-2.875z" fill-rule="evenodd"/>
<path clip-rule="evenodd" d="m148.45 50.329c1.291 0.199 2.388 0.114 2.517 2.155-1.15 1.612-3.85-0.231-2.52-2.155z" fill-rule="evenodd"/>
<path clip-rule="evenodd" d="m132.28 50.689c1.099-0.261 1.311 0.368 2.157 0.359-0.2 1.357-0.51 2.606-2.517 2.156 0-0.954-0.14-2.053 0.36-2.515z" fill-rule="evenodd"/>
<path clip-rule="evenodd" d="m142.34 53.204c-1.019-0.062-0.7 1.217-2.155 0.72-0.414-0.424-0.407-1.27-0.36-2.156 1.48-0.699 2.72-1.102 2.52 1.436z" fill-rule="evenodd"/>
<path clip-rule="evenodd" d="m143.78 51.048h2.157c-0.147 0.866 0.657 0.781 0.36 1.796-0.99 0.433-1.502 0.781-2.517 0.36-0.04-1.342-0.41-1.024 0-2.156z" fill-rule="evenodd"/>
<path clip-rule="evenodd" d="m154.2 51.048c0.82 0.749 1.856 1.498 1.08 2.875-1.643 0.205-2.051-0.825-2.157-2.156 0.72 0.121 1.12-0.072 1.08-0.719z" fill-rule="evenodd"/>
<path clip-rule="evenodd" d="m162.82 52.128c-0.157 2.957-2.77 3.457-3.954 5.39-1.032-0.167-1.979-0.415-2.155-1.439 1.42-1.907 2.8-5.031 6.1-3.951z" fill-rule="evenodd"/>
<path clip-rule="evenodd" d="m128.32 56.079c-1.998 0.322-2.354-1-2.157-2.875 2.06-1.793 2.8 0.995 2.16 2.875z" fill-rule="evenodd"/>
<path clip-rule="evenodd" d="m136.95 53.924c-0.391 2.179 1.848 3.934 0 5.39-1.017 0.059-0.838-1.079-1.797-1.076 0.82-1.91-0.358-2.357-0.718-3.955 0.47-0.497 1.56-0.356 2.52-0.359z" fill-rule="evenodd"/>
<path clip-rule="evenodd" d="m146.65 53.924c0.886-0.047 1.731-0.056 2.157 0.359 0.041 1.755-1.16 2.82-2.516 2.156 0.01-0.954-0.13-2.053 0.36-2.515z" fill-rule="evenodd"/>
<path clip-rule="evenodd" d="m131.92 54.283c0.414 1.536-0.032 2.972-2.156 2.875-0.4-1.155-0.16-3.398 2.16-2.875z" fill-rule="evenodd"/>
<path clip-rule="evenodd" d="m141.62 55.719c1.591-0.392 1.787 0.611 2.875 0.72-0.521 2.115-2.324 2.948-4.672 3.235-0.414-0.424-0.407-1.27-0.36-2.156 1.39 0.079 2.48-0.149 2.15-1.799z" fill-rule="evenodd"/>
<path clip-rule="evenodd" d="m162.46 56.439c0.887-0.047 1.731-0.056 2.155 0.36 0.343 1.977-1.283 2.387-2.515 1.796-0.26-1.097 0.63-1.056 0.36-2.156z" fill-rule="evenodd"/>
<path clip-rule="evenodd" d="m147.37 57.159c1.34 0.576 0.816 3.018 3.235 2.515-0.19 2.767 2.039 4.417 1.078 6.83-3.653 0.059-1.672-5.516-4.673-6.11-0.11-1.644-0.37-1.996 0.36-3.235z" fill-rule="evenodd"/>
<path clip-rule="evenodd" d="m126.52 57.518c1.256 0.761 2.494 2.498 1.078 3.952-1.56 0.47-2.48-2.498-1.08-3.952z" fill-rule="evenodd"/>
<path clip-rule="evenodd" d="m130.48 58.238c1.699-0.144 2.59 0.523 2.517 2.156-1.765 0.149-1.37 0.374-2.876 0-0.26-1.101 0.62-1.06 0.36-2.156z" fill-rule="evenodd"/>
<path clip-rule="evenodd" d="m158.87 58.595c1.489-0.41 1.401 0.757 2.519 0.719-0.322 1.372 0.585 2.293 0 2.875-1.193-0.439-1.129 0.023-2.878-0.36-0.11-1.307 0.06-2.336 0.36-3.234z" fill-rule="evenodd"/>
<path clip-rule="evenodd" d="m64.707 59.674c0.886-0.047 1.731-0.056 2.157 0.36 0.553 1.132 0.123 2.208-1.079 2.515-1.337 0.02-1.035-1.6-1.078-2.875z" fill-rule="evenodd"/>
<path clip-rule="evenodd" d="m51.049 60.034c1.116-0.038 1.027 1.132 2.517 0.719 0.171 1.129-0.512 1.404-0.72 2.156-1.114-0.003-0.945-0.547-2.157-1.079-0.296-1.016 0.508-0.931 0.36-1.796z" fill-rule="evenodd"/>
<path clip-rule="evenodd" d="m136.59 60.034c1.97 0.003 3.304 1.547 2.515 3.235-1.443 0.125-2.629-0.006-2.875-1.079-0.664 0.055-0.219 1.216-0.718 1.439-4.124 0.196-0.663-5.154 0.359-1.799 0.8-0.053 0.78-0.904 0.73-1.796z" fill-rule="evenodd"/>
<path clip-rule="evenodd" d="m163.18 60.034c2.825 1.521-0.267 3.027 0.72 6.11h-1.439c-0.912-2.015 1.117-3.41-0.359-5.391 0.53-0.836 1.14 0.702 1.08-0.719z" fill-rule="evenodd"/>
<path clip-rule="evenodd" d="m143.78 60.394c1.188 0.728 2.378 1.457 2.157 3.594-1.154 0.992-2.315 0.775-3.235 0 0.02-1.541 0.38-2.729 1.08-3.594z" fill-rule="evenodd"/>
<path clip-rule="evenodd" d="m156 60.394c0.749 0.567 1.802 0.831 1.796 2.155-0.805 0.152-1.144 0.772-1.796 1.08-1.53-0.253-1.35-2.955 0-3.235z" fill-rule="evenodd"/>
<path clip-rule="evenodd" d="m68.302 61.83c1.358-0.521 0.688 0.988 1.797 0.719 0.134 4.317-4.687 1.53-1.797-0.719z" fill-rule="evenodd"/>
<path clip-rule="evenodd" d="m127.96 62.909c1.107-0.269 0.438 1.24 1.797 0.72 0.136 1.693-0.029 3.085-1.797 2.875-0.46-1.045-0.46-2.551 0-3.595z" fill-rule="evenodd"/>
<path clip-rule="evenodd" d="m154.2 66.863c-0.519-0.799-1.825-0.813-1.438-2.519 2.14-1.391 3.32 1.759 1.44 2.519z" fill-rule="evenodd"/>
<path clip-rule="evenodd" d="m157.44 64.345c1.708-0.269 1.968 0.907 2.872 1.439-0.229 1.085-0.986 1.647-2.516 1.439 0.497-1.457-0.778-1.138-0.72-2.158 0.35-0.009 0.28-0.44 0.37-0.72z" fill-rule="evenodd"/>
<path clip-rule="evenodd" d="m132.28 65.064c1.429-0.111 1.945 0.69 1.798 2.158-1.828 0.468-0.907 1.468-1.798 2.875-1.369-0.123-1.946-0.26-2.157-2.159 1.65-0.025 1.41-1.943 2.16-2.874z" fill-rule="evenodd"/>
<path clip-rule="evenodd" d="m134.79 65.064h2.875v2.158h-2.155c-0.2-0.751-0.88-1.026-0.71-2.158z" fill-rule="evenodd"/>
<path clip-rule="evenodd" d="m140.18 65.064h2.155c-0.172 1.132 1.104 0.813 0.72 2.158-1.163-0.444-0.275 1.162-1.438 0.717-1.24-0.195-1.64-1.237-1.44-2.875z" fill-rule="evenodd"/>
<path clip-rule="evenodd" d="m145.21 65.784c1.098-0.26 1.31 0.369 2.157 0.36 0.047 0.886 0.054 1.731-0.36 2.156-1.098 0.26-1.309-0.369-2.155-0.36-0.05-0.887-0.06-1.732 0.35-2.156z" fill-rule="evenodd"/>
<path clip-rule="evenodd" d="m153.84 67.223c1.418 0.018 2.138 0.734 2.156 2.156-0.35 0.009-0.279 0.439-0.359 0.72-1.647-0.196-1.675 0.073-2.516-1.08-0.27-1.106 0.99-0.69 0.72-1.796z" fill-rule="evenodd"/>
<path clip-rule="evenodd" d="m163.9 67.223c1.479 0.029 1.067 1.945 0.716 2.875-1.787 0.348-2.334-0.541-2.155-2.159 0.64-0.082 1.81 0.363 1.44-0.716z" fill-rule="evenodd"/>
<path clip-rule="evenodd" d="m149.89 67.58c0.895-0.053 1.113 0.564 1.797 0.72-0.549 2.585 0.953 3.121 0.719 5.39h-2.157c0.061-1.015-0.309-2.465 0.719-2.515-0.562-0.518-1.252-0.904-1.439-1.796-0.3-1.015 0.5-0.934 0.36-1.799z" fill-rule="evenodd"/>
<path clip-rule="evenodd" d="m134.07 68.299h0.718c1.179 0.26 1.404 1.471 1.438 2.875-0.954-0.003-2.052 0.138-2.515-0.36-0.22-1.167 0.24-1.669 0.35-2.515z" fill-rule="evenodd"/>
<path clip-rule="evenodd" d="m158.87 68.299c0.893 0.175 2.027 0.085 2.519 1.439-0.012 1.304-1.059 1.58-2.519 1.436-0.41-1.006-0.41-1.869 0-2.875z" fill-rule="evenodd"/>
<path clip-rule="evenodd" d="m143.78 69.019c1.29 0.506 2.528 1.065 2.157 3.235-0.418-0.058-0.639 0.079-0.719 0.36-1.8-0.027-2.88-2.461-1.44-3.595z" fill-rule="evenodd"/>
<path clip-rule="evenodd" d="m138.74 69.738c1.013-0.067 0.901 1.413 1.438 0 1.753 1.328-1.59 2.934 0.358 4.671-0.809 0.629-1.196 1.679-2.875 1.439-0.798-1.082-0.422-1.255-0.358-2.875 0.79 0.942 1.193-1.117 2.156 0-1.02-1.205-1.72-1.492-0.72-3.235z" fill-rule="evenodd"/>
<path clip-rule="evenodd" d="m147.37 69.738c1.4 0.497 1.958 1.281 1.438 2.875-2.63 0.304-2.83-1.766-1.44-2.875z" fill-rule="evenodd"/>
<path clip-rule="evenodd" d="m156.72 70.455c0.985 0.333 1.503 1.135 1.796 2.159-0.579 0.497-0.884 1.27-2.156 1.076-0.286-0.669-0.601-1.316-0.719-2.155 0.33-0.384 1.32-0.112 1.08-1.08z" fill-rule="evenodd"/>
<path clip-rule="evenodd" d="m65.067 74.409c-1.141 0.298-0.916 1.959-2.875 1.439-1.701-2.664 2.569-4.603 2.875-1.439z" fill-rule="evenodd"/>
<path clip-rule="evenodd" d="m146.65 74.409h2.157c0.519 1.158 0.029 2.706-1.798 2.516-0.52-0.898-0.87-1.41-0.36-2.516z" fill-rule="evenodd"/>
<path clip-rule="evenodd" d="m153.12 74.409h1.438c0.31 1.383 0.785 3.2-1.078 3.235-0.3-0.895-0.47-1.924-0.36-3.235z" fill-rule="evenodd"/>
<path clip-rule="evenodd" d="m143.78 74.769h2.157c0.198 1.875-0.159 3.194-2.157 2.875-0.55-1.144-0.13-1.582 0-2.875z" fill-rule="evenodd"/>
<path clip-rule="evenodd" d="m66.504 77.644c0.169 1.129-0.968 0.951-1.078 1.796-1.26-0.295-1.755-1.36-1.797-2.875 1.613-0.544 1.916 0.196 2.875 1.079z" fill-rule="evenodd"/>
<path clip-rule="evenodd" d="m140.18 76.208c1.243-0.287 1.517 0.398 2.155 0.717-0.12 0.839-0.368 1.55-1.078 1.798-1.5-0.012-1.62-1.401-1.08-2.515z" fill-rule="evenodd"/>
<path clip-rule="evenodd" d="m50.689 76.925c0.464 0.617 1.182 0.977 2.157 1.079 0.276 1.354-0.438 1.717-0.36 2.875-0.614 0.076-0.93-0.611-1.078 0-1.189-1.123-0.793-2.033-0.719-3.954z" fill-rule="evenodd"/>
<path clip-rule="evenodd" d="m44.581 79.44c0.158 1.597-0.92 1.957-2.517 1.799 0.009-0.848-0.619-1.059-0.36-2.156 1.074-0.605 2.327-0.951 2.877 0.357z" fill-rule="evenodd"/>
<path clip-rule="evenodd" d="m56.082 79.44c0.155-0.801 1.771-0.144 2.516-0.357-0.059 0.416 0.079 0.638 0.359 0.717-0.048 1.152-0.814 1.582-2.157 1.439-0.677-0.717-0.337-1.536-0.718-1.799z" fill-rule="evenodd"/>
<path clip-rule="evenodd" d="m110.35 79.083c1.455-0.497 1.136 0.778 2.156 0.717-0.287 0.672-0.6 1.316-0.718 2.158-0.616 0.073-0.932-0.614-1.079 0-1.03-0.547-1.21-2.331-0.36-2.875z" fill-rule="evenodd"/>
<path clip-rule="evenodd" d="m113.94 80.16c0.306-0.064 0.339 0.14 0.36 0.359 0.251-0.266 2.12-0.041 2.515 1.439-0.559 0.638-1.011 1.384-2.515 1.077-0.55-0.521-0.31-1.84-0.36-2.875z" fill-rule="evenodd"/>
<path clip-rule="evenodd" d="m120.78 82.315v2.159c-0.918 0.617-1.258-0.413-1.797 0.36-0.74-0.1-0.338-1.34-1.078-1.439 0.92-0.647 1.46-1.896 2.88-1.08z" fill-rule="evenodd"/>
<path clip-rule="evenodd" d="m102.8 82.315c0.667 0.652 0.82 1.816 1.078 2.878-1.129 0.246-1.468-0.043-1.797 0.357-1.02-0.644-1.9-3.691 0.72-3.235z" fill-rule="evenodd"/>
<path clip-rule="evenodd" d="m105.68 83.035h4.672c0.244 2.676-2.609 2.811-4.672 2.158-0.32-1.053-0.32-1.106 0-2.158z" fill-rule="evenodd"/>
<path clip-rule="evenodd" d="m97.054 84.833c1.591-0.395 1.787 0.608 2.875 0.716 0.146 0.866-0.656 0.784-0.359 1.799-0.863 0.304-0.952 0.231-2.516 0.36-0.414-1.009-0.414-1.869 0-2.875z" fill-rule="evenodd"/>
<path clip-rule="evenodd" d="m111.07 85.55h3.235c0.402 1.72-0.887 1.749-1.078 2.875-0.751-0.205-1.026-0.889-2.157-0.716 0.01-0.72 0.01-1.439 0.01-2.159z" fill-rule="evenodd"/>
<path clip-rule="evenodd" d="m121.85 86.629c0.234 1.31-0.243 1.913-0.72 2.515-0.944-0.169-1.209-0.281-2.155-1.076-0.914 0.164-0.603 1.553-1.438 1.796-0.74-0.459-1.823-0.573-1.797-1.796-0.146-1.934 2.948-1.781 3.235-0.36 0.37-0.918 1.61-2.164 2.87-1.079z" fill-rule="evenodd"/>
<path clip-rule="evenodd" d="m92.74 86.629c0.715 0.6 0.458-0.032 1.438 0 0.384 0.336 0.113 1.325 1.079 1.079-0.067 1.249-1.038 1.597-1.797 2.156-1.316-0.544-1.758-2.15-0.72-3.235z" fill-rule="evenodd"/>
<path clip-rule="evenodd" d="m102.08 86.989c1.418 0.22 1.202 2.472 0.72 3.595h-3.955c0.009-0.848-0.619-1.059-0.358-2.159 1.483-0.368 2.653 0.014 3.593-1.436z" fill-rule="evenodd"/>
<path clip-rule="evenodd" d="m108.56 87.708c0.259 1.097-0.367 1.307-0.36 2.156-1.761-0.19-2.553 0.798-3.235 0.719-0.515-0.444-0.68-1.237-0.718-2.159 1.79-0.394 3.05-1.611 4.32-0.716z" fill-rule="evenodd"/>
<path clip-rule="evenodd" d="m124.01 87.349c0.534-0.012 1.605 1.471 1.438 0 1.471 0.369 0.981 1.901 0.718 3.235-1.542 0.015-1.182-0.444-2.515-1.079-0.27-1.1 0.61-1.057 0.35-2.156z" fill-rule="evenodd"/>
<path clip-rule="evenodd" d="m112.51 89.504c0.916-0.392 1.394 1.685 1.438 0 0.993 0.088 0.82 1.336 1.438 1.796-0.679 1.199-2.596 1.375-3.593 0.36-0.3-1.243 0.39-1.515 0.71-2.156z" fill-rule="evenodd"/>
<path clip-rule="evenodd" d="m96.334 90.583c0.413 1.489-0.756 1.401-0.719 2.516-1.105-0.252-0.69-0.252-1.796 0-1.291-2.112 1.054-4.112 2.515-2.516z" fill-rule="evenodd"/>
<path clip-rule="evenodd" d="m130.48 92.739c-0.829-0.111-0.399 1.038-1.078 1.079-1.762 0.082-1.883-1.471-2.157-2.875 1.66-0.532 2.81 0.199 3.24 1.796z" fill-rule="evenodd"/>
<path clip-rule="evenodd" d="m118.62 90.943h2.515c0.127 1.442-0.004 2.629-1.078 2.875-1.24-0.198-1.64-1.24-1.44-2.875z" fill-rule="evenodd"/>
<path clip-rule="evenodd" d="m97.413 91.66c0.955 0.005 2.053-0.135 2.517 0.359v1.799c-1.135-0.178-1.269 0.646-2.517 0.36-0.375-1.021-0.375-1.5 0-2.518z" fill-rule="evenodd"/>
<path clip-rule="evenodd" d="m125.09 94.895c-1.876 0.318-2.799-0.316-2.517-2.156 1.56-1.187 2.95-0.401 2.52 2.156z" fill-rule="evenodd"/>
<path clip-rule="evenodd" d="m116.46 92.739c0.306-0.067 0.338 0.14 0.358 0.36 0.092 0.746 1.58 0.096 1.797 0.719-0.414 0.424-0.407 1.27-0.36 2.156-1.569 0.816-2.562-0.673-3.233-1.796-0.18-1.137 1.78-0.135 1.43-1.439z" fill-rule="evenodd"/>
<path clip-rule="evenodd" d="m56.8 94.178c0.625 2.638-2.049 2.939-3.233 1.796-0.08-1.872 1.628-2.65 3.233-1.796z" fill-rule="evenodd"/>
<path clip-rule="evenodd" d="m92.382 94.178h2.156c0.512 1.103 0.161 1.614-0.36 2.515-1.42-0.219-2.381-1.292-1.796-2.515z" fill-rule="evenodd"/>
<path clip-rule="evenodd" d="m48.174 97.053c-0.243-2.369 1.962-2.343 2.875-1.799 0.814 1.931-1.294 2.975-2.875 1.799z" fill-rule="evenodd"/>
<path clip-rule="evenodd" d="m103.16 95.254c0.209 1.167-0.244 1.673-0.358 2.516-2.495-0.62-3.334 0.699-5.032-0.36-0.297-1.015 0.506-0.93 0.359-1.796 2.053-0.026 3.023-1.079 5.033-0.36z" fill-rule="evenodd"/>
<path clip-rule="evenodd" d="m119.7 94.895c1.917-0.278 2.05 1.623 1.438 2.875-1.015 0.298-0.93-0.506-1.795-0.36-0.21-1.167 0.24-1.67 0.36-2.515z" fill-rule="evenodd"/>
<path clip-rule="evenodd" d="m130.84 95.254v1.799c-1.996 1.693-6.076 1.574-3.953-1.799 0.87 1.896 2.24-1.667 3.95 0z" fill-rule="evenodd"/>
<path clip-rule="evenodd" d="m108.56 95.254h2.156c0.614 1.161 0.964 2.144 0 3.235-1.39-0.415-2.43-1.17-2.16-3.235z" fill-rule="evenodd"/>
<path clip-rule="evenodd" d="m58.237 96.334c1.016 0.781 3.191 1.916 1.797 3.951-1.455 0.498-1.136-0.778-2.156-0.716 0.016-1.18 0.608-1.785 0.359-3.23z" fill-rule="evenodd"/>
<path clip-rule="evenodd" d="m116.46 97.41c0.268 1.108-0.987 0.693-0.719 1.799-1.854 0.175-2.986-0.369-2.875-2.156 1.43-0.354 2.62-0.5 3.6 0.357z" fill-rule="evenodd"/>
<path clip-rule="evenodd" d="m92.022 98.13c0.157 1.237-0.142 2.015-0.36 2.875-1.389-0.103-2.112-0.094-2.875-1.436 0.373-1.18 1.377-1.735 3.235-1.434z" fill-rule="evenodd"/>
<path clip-rule="evenodd" d="m93.459 98.13h2.156c0.641 1.243 0.323 2.708-1.078 2.875-0.069-0.407-0.36-0.199-0.36 0-0.531-0.66-0.687-1.703-0.718-2.87z" fill-rule="evenodd"/>
<path clip-rule="evenodd" d="m44.221 98.489c0.955 0.003 2.052-0.134 2.516 0.36 0.209 1.167-0.244 1.673-0.36 2.516-0.614 0.076-0.93-0.611-1.078 0-0.923-0.64-1.588-1.759-1.078-2.871z" fill-rule="evenodd"/>
<path clip-rule="evenodd" d="m52.128 98.489c0.99 0.468 0.718 1.942 0.358 2.875-1.547 0.111-2.9 0.026-2.875-1.437 0.336-0.98 1.794-0.84 2.517-1.434z" fill-rule="evenodd"/>
<path clip-rule="evenodd" d="m57.519 99.569c0.148 0.866-0.656 0.781-0.359 1.796-0.819 0.494-1.352-0.927-1.438 0-0.515-0.442-0.68-1.237-0.718-2.156 0.769-0.77 2.008-0.179 2.515 0.365z" fill-rule="evenodd"/>
<path clip-rule="evenodd" d="m101.37 98.849c1.903-0.105 2.837 0.758 2.516 2.875h-2.157c-0.34-1.41-0.79-1.33-0.36-2.871z" fill-rule="evenodd"/>
<path clip-rule="evenodd" d="m106.04 98.849c0.563 0.155 0.307 1.129 1.438 0.72 0.814 2.84-3.333 2.84-2.517 0 0.72 0.119 1.12-0.073 1.08-0.72z" fill-rule="evenodd"/>
<path clip-rule="evenodd" d="m129.04 102.8c-0.835-0.363-1.158-1.237-1.078-2.519 0.998-0.438 2.352-0.523 2.875-1.436 2.58 1.114-0.06 3.876-1.8 3.956z" fill-rule="evenodd"/>
<path clip-rule="evenodd" d="m117.9 99.569c1.675 0.167 1.59 0.009 2.875 0.716-0.432 0.77-0.439 1.96-1.438 2.159-1.52-0.12-1.88-1.8-1.44-2.871z" fill-rule="evenodd"/>
<path clip-rule="evenodd" d="m124.37 99.569c0.895-0.056 1.113 0.564 1.797 0.716v2.159c-1.87 0.313-2.55-0.564-2.515-2.159 0.6 0.14 0.67-0.27 0.71-0.711z" fill-rule="evenodd"/>
<path clip-rule="evenodd" d="m99.21 100.64c-0.173 2.308-1.343 2.77-2.875 2.159-0.445-2.03 1.366-3.217 2.875-2.16z" fill-rule="evenodd"/>
<path clip-rule="evenodd" d="m111.07 101.72c0.209 1.407-0.309 2.088-0.718 2.875-2.81 0.89-2.48-4.634 0.72-2.88z" fill-rule="evenodd"/>
<path clip-rule="evenodd" d="m39.909 102.44c0.259 1.097-0.369 1.31-0.36 2.156-0.955-0.003-2.053 0.134-2.515-0.36-0.751-2.5 1.791-3.21 2.875-1.8z" fill-rule="evenodd"/>
<path clip-rule="evenodd" d="m112.87 102.08c1.074 0.044 1.065 0.427 2.516 0.72 0.497 1.454-0.78 1.135-0.718 2.155h-2.517c-0.59-1.68 0.21-1.59 0.72-2.88z" fill-rule="evenodd"/>
<path clip-rule="evenodd" d="m91.662 102.8c0.158 1.234-0.142 2.012-0.359 2.875-1.368-0.123-2.071-0.135-2.156-2.159 0.939-0.14 1.003-1.15 2.515-0.72z" fill-rule="evenodd"/>
<path clip-rule="evenodd" d="m118.62 102.8c3.788 0.079 2.144 4.554-0.36 2.875-0.56-1.14 0.2-1.58 0.36-2.88z" fill-rule="evenodd"/>
<path clip-rule="evenodd" d="m129.76 105.68c-0.479 0.36-1.085 0.591-1.438 1.076-3.31-1.72 1.71-5.89 1.44-1.08z" fill-rule="evenodd"/>
<path clip-rule="evenodd" d="m93.459 103.52c0.955 0.006 2.052-0.134 2.516 0.36 0.048 0.886 0.054 1.731-0.36 2.159-1.371-0.12-2.381-0.12-2.156-2.52z" fill-rule="evenodd"/>
<path clip-rule="evenodd" d="m98.85 105.68c0.295-5.154 5.911 0.585 0.72 0.717-0.16-0.32-0.316-0.64-0.72-0.72z" fill-rule="evenodd"/>
<path clip-rule="evenodd" d="m103.88 103.52c1.77-0.21 2.767 0.348 2.515 2.159-0.611-0.135-0.677 0.281-0.718 0.717-1.17-0.79-2.63-0.96-1.8-2.88z" fill-rule="evenodd"/>
<path clip-rule="evenodd" d="m122.21 103.52c1.312-0.231 1.914 0.243 2.515 0.72-0.402 1.167-1.262 2.091-2.515 1.439 0.01-0.72 0.01-1.44 0.01-2.16z" fill-rule="evenodd"/>
<path clip-rule="evenodd" d="m96.334 106.04c1.312-0.234 1.915 0.24 2.516 0.716-0.297 1.261-0.817 2.296-2.516 2.159-0.413-1.02-0.413-1.88 0-2.88z" fill-rule="evenodd"/>
<path clip-rule="evenodd" d="m108.56 106.04c0.413 1.006 0.413 1.866 0 2.875h-1.797c-0.72-1.41-0.35-3.31 1.8-2.88z" fill-rule="evenodd"/>
<path clip-rule="evenodd" d="m89.865 106.76h1.797c-0.259 1.1 0.367 1.311 0.36 2.159-1.597 0.199-0.798 2.796-2.157 3.235-2.934-1.71 1.391-2.78 0-5.4z" fill-rule="evenodd"/>
<path clip-rule="evenodd" d="m103.16 109.63h-1.796c-1.558-3.55 4.21-3.17 1.8 0z" fill-rule="evenodd"/>
<path clip-rule="evenodd" d="m111.07 107.12h2.157c0.375 1.018 0.375 1.498 0 2.516-2.13 0.4-2.99-1-2.16-2.52z" fill-rule="evenodd"/>
<path clip-rule="evenodd" d="m122.57 107.12c0.621 0.219-0.026 1.705 0.719 1.799-1.52 0.518-0.823 3.25-1.438 4.671-1.132 0.404-0.813 0.032-2.157 0-0.21-2.85 0.34-5.66 2.88-6.47z" fill-rule="evenodd"/>
<path clip-rule="evenodd" d="m119.34 108.19c0.035 1.115-0.44 1.717-0.72 2.516-1.392-0.167-2.185-0.93-2.156-2.516 1.27-0.59 1.74-0.91 2.88 0z" fill-rule="evenodd"/>
<path clip-rule="evenodd" d="m127.96 107.83c0.898 1.094 0.306 1.445 0.36 3.235-0.639-0.673-0.914 0.292-2.157 0-1.22-1.26-0.67-3.68 1.8-3.23z" fill-rule="evenodd"/>
<path clip-rule="evenodd" d="m48.894 108.55c1.116 0.322 1.553 1.319 1.795 2.516-2.655 1.52-3.679-0.9-1.795-2.52z" fill-rule="evenodd"/>
<path clip-rule="evenodd" d="m95.257 109.27c0.297 1.018-0.507 0.933-0.36 1.799-0.892 0.465-1.745-0.802-1.797 0-0.515-0.445-0.68-1.237-0.718-2.156 1.399-0.28 1.863-0.37 2.875 0.36z" fill-rule="evenodd"/>
<path clip-rule="evenodd" d="m97.772 109.27h2.515c0.645 1.223 0.272 2.357-0.718 2.878-1.107 0.266-0.439-1.24-1.797-0.72-0.003-0.72-0.003-1.44-0.003-2.16z" fill-rule="evenodd"/>
<path clip-rule="evenodd" d="m104.6 109.27c1.021-0.059 0.702 1.217 2.157 0.719 0.179 1.615-0.372 2.504-2.157 2.159-0.49-1.09 0.17-1.29 0-2.88z" fill-rule="evenodd"/>
<path clip-rule="evenodd" d="m109.63 110.71c2.504 0.965 2.27 1.88 0.36 3.595-1.186-0.015-1.375-1.024-1.438-2.156 0.28-0.56 1.15-0.53 1.08-1.43z" fill-rule="evenodd"/>
<path clip-rule="evenodd" d="m115.02 111.43c2.113 0.246 2.609 2.393 1.078 3.595-2.05-0.47-2.51-2.26-1.08-3.59z" fill-rule="evenodd"/>
<path clip-rule="evenodd" d="m32.361 111.79c1.351 0.205 2.486 0.629 2.515 2.156-0.905 1.249-2.518 0.532-3.235-0.36 0.155-0.69 0.776-0.91 0.72-1.8z" fill-rule="evenodd"/>
<path clip-rule="evenodd" d="m126.88 112.5c0.171 1.132-0.512 1.407-0.72 2.158h-1.797c-0.206-0.751-0.891-1.026-0.718-2.158 1.03-0.55 2.47-1.08 3.24 0z" fill-rule="evenodd"/>
<path clip-rule="evenodd" d="m93.459 112.15c1.565 0.126 1.653 0.053 2.516 0.357 0.048 0.886 0.054 1.731-0.36 2.158-1.969 0.25-2.923-1.07-2.156-2.52z" fill-rule="evenodd"/>
<path clip-rule="evenodd" d="m103.16 112.5c-0.121 0.722 0.075 1.126 0.72 1.079-0.649 2.893-3.812 1.056-4.312 3.955-1.739 0.099-2.109-1.565-1.438-2.875 3.05 0.66 2.35-2.44 5.03-2.16z" fill-rule="evenodd"/>
<path clip-rule="evenodd" d="m50.689 113.58c0.54 0.541 1.083 1.076 1.797 1.439 0.018 1.214-0.836 1.559-1.438 2.156-0.713-0.006-0.456-0.98-1.438-0.72-0.776-1.85 0.472-1.64 1.079-2.88z" fill-rule="evenodd"/>
<path clip-rule="evenodd" d="m108.2 114.66c0.047 0.886 0.054 1.732-0.359 2.156h-1.438c-0.287-0.673-0.6-1.316-0.718-2.156 1.05-0.58 1.78-0.18 2.52 0z" fill-rule="evenodd"/>
<path clip-rule="evenodd" d="m113.94 114.66c2.116 1.863-0.762 5.546-2.516 3.952-0.46-2.81 2.12-3.01 2.52-3.95z" fill-rule="evenodd"/>
<path clip-rule="evenodd" d="m117.54 114.66h2.516c0.269 1.585-0.276 2.357-1.078 2.875-1.46-0.18-2.05-1.63-1.44-2.88z" fill-rule="evenodd"/>
<path clip-rule="evenodd" d="m44.581 115.02c0.98-0.263 0.723 0.714 1.438 0.717 0.276 1.354-0.438 1.72-0.36 2.875-0.899 0.477-1.126-1.418-1.438-0.36-0.731-0.345-0.776-1.377-0.719-2.515 0.721 0.12 1.124-0.07 1.079-0.72z" fill-rule="evenodd"/>
<path clip-rule="evenodd" d="m54.644 115.38h1.438c1.079 1.158 0.235 2.015-0.36 3.235-0.32-0.219-0.642-0.433-0.718 0-1.177-0.62-0.486-2.03-0.36-3.24z" fill-rule="evenodd"/>
<path clip-rule="evenodd" d="m104.96 117.54v1.796c-0.463 0.494-1.56 0.356-2.515 0.359 0.297-1.015-0.506-0.93-0.36-1.796 0.53-0.56 1.84-0.32 2.88-0.36z" fill-rule="evenodd"/>
<path clip-rule="evenodd" d="m117.9 117.9v1.796c-0.708 0.714-2.053 0.229-2.875 0v-1.796c1.44-0.26 1.45-0.26 2.88 0z" fill-rule="evenodd"/>
<path clip-rule="evenodd" d="m111.79 120.05c2.024-0.231 2.956 1.322 2.156 2.875-2.03 0.24-2.96-1.32-2.16-2.87z" fill-rule="evenodd"/>
<path clip-rule="evenodd" d="m43.862 133.35c1.16-0.038 2.644 0.362 2.157 2.875-1.512-0.433-1.576 0.582-2.517 0.72-0.767-1.36 0.02-2.36 0.36-3.59z" fill-rule="evenodd"/>
<path clip-rule="evenodd" d="m49.612 135.51h1.438c0.505 1.311 1.055 2.463 0 3.595-1.183-0.72-2.091 0.111-2.155-2.878 0.61 0.14 0.676-0.27 0.717-0.71z" fill-rule="evenodd"/>
<path clip-rule="evenodd" d="m53.566 138.02c0.885-0.047 1.731-0.056 2.155 0.359 0.209 1.407-0.309 2.086-0.718 2.876-0.32-0.223-0.644-0.437-0.72 0-1.299-0.54-1.021-1.86-0.717-3.24z" fill-rule="evenodd"/>
<path clip-rule="evenodd" d="m46.377 149.16c0.55 1.144 0.127 1.582 0 2.875-1.442 0.328-1.743 0.252-2.515-0.719 0.071-1.48 0.677-2.44 2.515-2.16z" fill-rule="evenodd"/>
<path clip-rule="evenodd" d="m36.674 153.48c0.748 0.21 1.161 0.755 1.797 1.076-0.202 1.117-0.43 2.208-1.797 2.158-0.385-0.812-0.816-1.582-1.438-2.158-0.115-0.96 2.014 0.33 1.438-1.08z" fill-rule="evenodd"/>
<path clip-rule="evenodd" d="m187.62 46.734c2.101-3.782 3.303-7.324 7.547-9.345 1.245-0.591 3-1.126 3.594-1.077 3.519 0.287 6.066 3.896 10.422 2.516 4.51 2.199 6.791 6.627 6.829 13.299 2.63 0.082 4.18-2.126 6.47-0.36 2.183-1.887 6.555 0.038 9.345 0.716 0.17 2.229 1.557 3.235 2.156 5.034 5.227-1.679 10.094-5.317 17.61-4.314 1.193 1.811 3.598 2.316 4.674 4.314 0.778 1.448 0.185 3.293 1.436 4.671 1.425-0.255 2.542-0.811 3.595-1.437 2.422 0.389 2.188 0.635 3.955 0 6.186 2.167 13.319 4.633 12.22 12.22-1.018 6.99-8.704 8.505-12.939 11.5v2.156c6.276-1.009 16.7 0.6 19.046 5.75 1.618 3.548-2.685 5.227-3.951 8.266 0.237 1.319 1.243 1.872 2.156 2.518 2.982 3.527 4.819 8.389 4.311 15.812-0.105 1.603-0.447 3.185-0.717 4.674 2.39 1.243 5.134-1.158 7.187-0.72 1.146 0.246 2.683 1.533 2.878 2.875 0.457 3.164-3.223 4.7-3.954 7.905-2.992 0.123-3.218 3.016-6.11 3.235-0.014 1.334 0.553 2.085 1.08 2.875 1.041 5.15-0.123 9.216-2.159 12.939-0.339 0.623-0.471 1.422-0.72 1.796-0.462 0.708-1.673 1.094-2.155 1.799-0.699 1.023-1.117 3.124-2.155 4.312-1.123 1.283-2.907 1.977-3.955 3.234 0.349 7.528-1.477 14.036-4.67 18.689-0.349 0.507-1.369 1.697-2.156 2.516-1.69 1.764-2.398 1.585-4.674 2.875-1.72 0.975-1.696 1.504-4.312 2.156-3.495 0.874-6.145 0.067-10.064 2.518v3.592c-1.696 2.677-2.085 5.25-4.671 6.83-0.122 0.073-0.573-0.538-0.719-0.36-0.053 0.064 0.064 0.702 0 0.72-1.287 0.331-2.768 0.035-3.955 1.439-1.708 2.021-3.469 4.852-5.391 7.905-2.167 0.468-3.261 2.013-4.671 3.235-3.469 0.859-5.756 2.056-8.984 1.436-2.159-0.412-2.363-0.789-3.955-1.436-2.287-0.934-4.34-1.667-5.75-2.875-2.521 0.713-4.545 1.924-6.112 3.595-1.27 0.403-2.992 0.359-3.235 1.795-3.601-0.204-6.306 2.156-9.702 0.72-0.974-0.412-1.734-1.114-2.515-1.799-2.15 1.325-5.11 1.84-6.83 3.595-2.544 0.588-3.404-1.24-4.674 0-1.389 0.313-1.275-0.877-2.152-1.076-2.741 1.884-4.142 5.203-7.189 6.467-0.38 0.158-1.437-0.167-2.158 0-1.094 0.258-4.06 1.746-5.751 1.799-2.854 0.088-5.274-2.439-8.265-3.235-0.902-0.774-1.133-2.223-2.156-2.875-1.717-0.012-3.024 1.696-4.312 2.156-0.72 0.257-1.574-0.597-1.797 0.359h-6.47c-2.837-1.611-9.925-4.183-10.782-10.064-0.524-0.673-1.183-1.211-1.796-1.796-2.415-8.912-2.564-21.623 1.796-28.395-0.085-1.95-1.747-2.325-1.796-4.311-4.681 4.425-7.495 12.226-14.737 12.939-1.055 0.859-2.428 1.403-3.593 2.155-3.754-0.07-6.688-3.001-8.985-6.829-0.169-0.281 0.103-0.749-0.359-0.72-0.429-2.937 0.617-5.127 1.438-7.546 1.547-4.569 2.973-7.88 5.75-11.501 1.275-1.661 3.405-4.06 2.157-7.549-3.642 0.6-8.27 0.968-11.142 0-1.305-1.211-2.963-2.067-4.672-2.875-2.338-4.353-4.579-8.547-3.593-15.095 0.588-3.911 3.416-6.836 3.593-10.781 0.117-2.583-1.006-5.086-1.438-7.549-2.796-1.875-4.744-4.598-6.468-7.546-0.143-4.109 0.54-8.23 0.358-12.22-0.109-2.436-0.936-5.247 0-7.189 1.286-2.662 2.299-5.666 2.875-8.266 2.562-2.112 3.51-5.835 7.547-6.47 3.21-2.039 3.599-5.025 7.907-6.11 0.42-0.658 1.377-0.778 1.797-1.437 7.711 0.07 14.345-0.883 19.408 3.595 1.404-4.574-1.685-9.386-2.515-13.659-1.214-6.245 0.219-12.027 2.515-15.455 1.411-2.106 4.177-3.65 5.75-6.11 1.987-0.05 2.358-1.714 4.672-1.436 1.357-3.788 4.014-7.9 8.625-8.625 1.897-0.298 3.974-0.141 5.392-0.36 1.028-0.161 1.411-0.441 2.156-0.719 0.175-0.064 0.529-0.003 0.719 0 3.897 0.082 8.056 1.93 11.86 2.155 2.645 1.43 4.65 3.495 7.546 4.674 0.72 2.755 3.902 3.045 5.031 5.391 2.129 0.056 4.293 1.764 5.394 0.72 1.54 1.295 3.27 1.482 7.18 1.075zm-28.03 26.596c1.059-1.819 2.963-0.421 3.951 0.719 1.076-1.559 2.501-2.77 3.235-4.671-1.319-0.547-0.696-2.945 0.362-3.235 0.471 0.366 1.322 0.351 1.796 0.72 0.018-1.179 1.021-1.375 0.72-2.875-1.305-0.015-2.837 0.199-3.235-0.719 0.585-2.445-0.23-2.691-0.362-5.031 1.258-0.062 2.305 0.094 2.878 0.717 0.72 1.921-1.538 0.86-1.079 2.515 1.526 0.175 3.724-1.354 3.595-3.952-1.539-0.307-1.831 0.231-2.516-1.079-0.415-1.708 0.968-2.805 2.155-1.796 0.688-2.606-2.062-1.77-2.155-3.595 0.047-0.669 0.234-1.202 0.72-1.439 0.564 0.275 0.535 1.141 1.436 1.08 0.837-2.472-0.459-5.715-1.436-7.546 0.044 1.363-1.626 1.006-1.799 2.156 0.035 0.924 1.404 0.515 1.436 1.436-0.485 0.717-1.421 2.068-2.152 1.439 0.638 1.24 0.322 2.706-1.082 2.875-0.17 1.132 1.105 0.813 0.72 2.156-0.357 1.383-1.451 0.67-2.156 1.079 0.299-1.018-0.506-0.93-0.359-1.799 0.044-1.032 1.532-0.623 1.439-1.795-1.013 0.052-1.036-0.88-1.08-1.796-1.056 0.637-1.217 0.488-2.155 0.716-0.088-1.202-0.772-2.264 0.359-2.875h2.156c-0.275 0.918-0.529 1.652 0.359 2.159 0.067-0.533 0.869-0.331 1.437-0.36-0.72-2.003-0.79-2.829 0.72-3.955-1.077-0.003-1.51-0.646-1.796-1.436 0.418-0.062 0.392-0.57 0.356-1.079 1.357-0.41 1.638 0.345 2.158-0.72-2.357-1.196-3.264-2.404-5.391-3.235-0.295 1.027-0.579 2.059-2.155 1.799 0.023 1.223 0.111 2.507-0.72 2.875-1.202-0.026-2.485-0.962-1.796-2.875h2.153c-1.205-1.67-0.308-1.512 0-2.875-0.451-0.187-2.042-0.632-3.592-0.72 0.059 1.135 0.012 2.17-0.72 2.516-2.008 0.111-1.04-2.2-1.438-2.875-1.23-0.152-1.079 1.076-1.797 1.436-1.166-0.389-1.355-1.758-2.156-2.516-0.415 1.144-0.538 2.577-1.797 2.875-0.709-0.249-0.958-0.956-1.078-1.795-0.955 0.003-2.053-0.138-2.517 0.359 1.021 0.977 0.938 3.346-0.718 3.595-0.644-1.635-2.407-2.147-3.595-3.235-1.026 0.971-4.057 3.089-2.515 4.311 0.644-1.454 1.711-2.518 2.875-2.515 0.21 2.606-1.221 3.571-2.157 5.031-0.111 1.088 0.399 2.796-0.718 2.875-1.122 0.041-1.18-0.623-2.157-1.436-8.804-0.114-16.588 11.515-11.141 20.126v2.875c0.981 0.673 2.074-0.404 3.235 0.72 0.097 2.343-2.647 2.752 0 3.954 0.573-0.266-0.082-1.761 1.078-1.439 1.722 0.076 0.797 2.796 2.156 3.235 2.014 0.126 3.419-0.86 4.314 0.72 0.249 7.687 9.674 3.931 14.016 4.311-0.278-1.834 0.145-2.969 2.157-2.515v2.875c2.476-0.629 2.714 0.038 5.393-1.436 0.029-1.208-1.73-2.878 0-3.595 1.226 0.21 1.699 1.176 1.436 2.875 1.255-0.886 2.325-0.237 2.875-2.156-0.462-1.05-1.84-1.176-2.155-1.439 0.43-0.076 0.21-0.398-0.01-0.72zm23 10.424c0.167-0.164 0.644 0.462 0.72 0.36 0.968-1.331 0.73-3.729 3.234-3.954 3.762-6.973 10.094-9.477 16.534-14.016 0.064 1.723 0.623-0.617 1.796 0 2.398-2.393 3.832-5.753 6.826-7.549 0.819-3.109 1.919-7.417 1.439-10.781-0.208-1.459-1.164-4.519-2.158-5.39-1.316-1.158-3.451-0.857-5.388-1.08-2.904-0.333-4.955-2.003-7.909-2.515-0.982 0.936-2.158 1.673-3.954 1.796-0.714 2.454-2.764 3.788-3.235 6.83-0.906 5.896 1.732 12.904 3.235 17.25 1.893 0.456 2.132-0.743 3.598-0.717 0.55-1.407-0.24-3.039-0.72-4.674-0.479-1.626-0.933-3.644-1.799-3.954 0.038-1.068 0.819-1.454 0.36-2.156-1.24 0.076 0.604-4.928-0.36-5.391 1.469-1.161 2.255-3.501 3.954-4.671 1.849-1.275 4.058-0.766 6.83 0 1.471 2.521 4.104 4.183 4.671 7.546 0.229 1.354-0.389 2.711 0 4.314-1.808 2.624-3.115 5.747-5.75 7.546-2.683 0.717-4.671 3.899-7.549 3.235-0.366 2.407-1.978 1.36-3.592 2.516-1.419 3.135-5.225 3.881-6.47 7.189-0.626-0.029-1.118 0.079-1.439 0.36-1.731 3.899-5.531 5.727-7.546 9.345-0.849-0.88-0.67 0.536-1.796 0.357 0.149 1.887 1.553 2.519 3.234 2.875 1.94-0.86 2.16-3.606 3.24-4.671zm-45.64-39.895c0.145-0.603 1.195-3.22 0-2.875 0.41 1.167-1.1 2.211 0 2.875zm65.05 17.254c0.667-0.322 2.275-0.822 2.158-0.719 0.36-0.316 0.594-1.811 1.439-2.875 0.462-0.585 1.538-0.982 1.796-1.439 2.611-4.615-0.375-7.376-2.516-10.781-2.161 0.482-2.278-1.076-4.314-0.72-4.787 3.521-3.094 12.697-0.716 17.611 0.48-0.296 1.17-0.606 2.15-1.077zm-28.04-7.909c-0.356 0.933-0.631 2.407 0.36 2.875 0.778-0.751 1.764-1.492 3.234-2.155 0.524-0.237 1.589-0.073 2.156-0.36 2.176-1.1 4.118-3.715 7.189-2.516-0.021-0.672 0.274-0.76 0.719-0.359-0.081-0.679 0.404-0.793 0.357-1.437-4.86-0.245-9.97 1.065-14.02 3.952zm41.7 2.156c1.708 1.427 3.901 0.585 5.75 0.719 3.539 0.26 6.102 1.387 8.628 3.235 0.182-1.053 0.679-0.205 1.077-1.436 0.081 0.278 0.012 0.708 0.359 0.717-0.389-2.82-4.174-0.298-3.235-4.671-3.38 0.149-9.7-0.883-12.58 1.436zm-33.07 1.439c1.108-0.328 1.196-1.682 1.436-2.875-1.5-0.112-1.85 2.199-1.44 2.875zm2.16 6.11c-0.114 1.305-1.255 3.521 0.363 3.955 1.802-0.182 4.381-3.013 4.671-5.75 0.271-2.571-1.29-5.072-1.799-7.189-2 2.333-2.87 4.866-3.23 8.984zm51.04-2.156c1.08-1.211-1.33-1.091 0 0zm11.13-1.439c0.38 0.094 3.346 1.609 3.598 1.799 4.536 3.417 1.827 11.34-1.08 15.812-1.547 2.377-3.419 4.963-5.033 6.829-1.837 2.129-4.027 4.323-4.671 7.189 1.529 0.21 2.378-0.26 3.595-0.36 3.369-5.499 11.512-14.493 12.22-24.08 0.229-3.068 0.064-6.815-1.796-8.985-2.603-3.039-4.814-0.731-8.269-2.158 0.079 1.436-1.482 0.462-2.155 0.719-0.617 0.237-1.573 1.027-2.516 1.439-1.518 0.661-2.673 1.158-3.234 1.796-0.404 0.459-2.203-0.597-1.439 0.72 2.61 0.602 7.02-1.647 10.77-0.72zm-39.89 8.625c2.58 1.146 6.959-0.594 8.985 0 1.483-1.632 2.033-4.197 5.034-4.311 0.979-1.893 4.507-1.243 5.388-3.235-2.15-1.106-5.254-2.334-7.187-1.08 0.056-1.6-1.46-0.213-1.799 0-0.267-2.094-1.574-0.015-2.872-1.076-2.18 3.578-5.53 5.968-7.55 9.702zm-26.95 1.439c3.583-0.638 1.787-8.476 2.516-10.784h-2.155c-0.79 2.744-1.95 7.939-0.36 10.784zm-7.91-3.234c-0.146 2.703-0.146 5.221-0.72 7.546-0.479 1.942-2.653 4.051-0.72 5.75 2.775 0.035 4.007-5.814 6.11-8.625-1.114-2.937-0.431-6.314-0.36-9.702-0.079-0.281-0.298-0.418-0.719-0.36-0.96 2.03-2.13 3.858-3.59 5.391zm69-3.595c1.275 0.316 0.887 0.044 2.159 0.36v-1.439c-0.8 0.28-1.95 0.207-2.16 1.079zm3.6 0c0.018-0.617-0.277-0.921-0.719-1.079-0.51 0.526-0.53 1.392 0.72 1.079zm-7.19 0.72c-0.082-0.281-0.012-0.711-0.36-0.72-1.229 1.091-3.325 0.292-5.033 2.156-3.376 0.576-5.355 2.55-6.827 5.034 1.346 1.605 2.989 1.003 4.674 2.515 4.42-2.185 13.803-3.782 19.767-1.079 0.254-1.989 2.111-5.089 0.356-6.83-0.085 0.635-0.617 0.822-1.436 0.72-7.602-1.644-12.86 3.047-20.126 5.75-0.281-0.798-0.755-1.401-0.72-2.515 1.328-0.348 2.065-1.29 3.954-1.077 2.8-2.896 7.842-2.974 8.985-5.033-0.85-0.472-2.33 0.043-3.22 1.079zm34.15 14.735c1.854-2.29 4.662-3.718 3.234-8.625-2.252-2.401-5.47-5.282-8.985-5.75-3.029-0.404-6.545-0.5-8.269 2.515 2.221 1.375 6.464-1.12 9.705 0 1.302 0.448 2.229 1.772 3.235 2.875 0.354 1.442 0.441 3.153 0.359 5.031-1.837 2-3.404 4.265-7.549 3.955-0.196 1.635 0.184 2.691 1.079 3.235 3.01-0.455 4.19-2.742 7.18-3.236zm-52.12-10.065c0.345 0.731 1.381 0.778 2.516 0.72 0.865-1.77 2.831-2.439 3.595-4.314-0.896 0.041-1.114 0.676-1.799 0-0.77 1.769-3.98 1.749-4.31 3.594zm48.88 2.516c-3.03-1.927-5.376-2.995-7.908-0.356-1.904 0.061-1.118-0.486-2.876-0.72-3.34 3.349 3.446 3.314 3.955 6.11 3.9-0.293 6.89-0.281 6.83-5.034zm-40.97 2.875c-3.057-0.951-5.49-1.19-7.187-2.875-2.983-0.55-3.592-0.093-5.031 0-0.664 0.044-1.69-0.45-2.158-0.356-0.526 0.102-0.892 0.649-1.439 0.716-3.17 0.404-6.142 0.483-7.546-1.796-0.45 0.123-1.474 0.301-2.515 0.72 1.708 6.063 9.681 3.861 13.658 2.875 0.79 1.027 3.732 1.223 6.467 2.156 0.085 0.029-0.081 0.676 0 0.719 1.161 0.6 3.312 0.357 3.955 0.72 2.477 1.389 2.313 4.551 0.717 7.187-2.75 1.009-5.9 2.556-8.266 2.875-1.884-1.389-2.598-0.392-4.312-1.436 0.187 0.74-0.854 0.699-1.079 0.716-1.875 0.158-4.027-0.559-6.467 0.72-0.363-0.495-0.597 0.155-1.082-0.72-2.545 1.632-4.678 1.436-6.468 2.519-0.553 0.333-3.226 1.755-3.954 2.515-1.802 1.887-4.197 6.789-2.875 10.062 1.17-1.875 1.649-6.192 3.595-6.11 0.471-2.583 2.957-4.256 5.03-5.031 0.331-0.123 0.582 0.412 1.08 0.36 0.815-0.088 1.959-1.003 2.515-1.08 3.335-0.447 6.728 0.799 9.345-1.076 3.191 1.924 7.078 0.913 11.142 0 0.538-0.541 0.643-1.515 1.438-1.799 3.636-1.515 7.055-3.247 6.826-8.625-1.53-1.59-4.15-2.084-5.39-3.959zm-50.32 1.079c0.059 3.39-4.13 6.043-1.796 9.345 0.456-0.982 1.287-1.588 1.796-2.515 3.854-2.375 5.596-6.865 9.705-8.985-0.018-1.07 1.056-1.825 0.356-2.515-3.92-1.431-6.92 4.322-10.06 4.67zm56.07 0.36c1.843 1.27 3.095-1.065 5.03-1.08 1.887-0.014 6.827 1.869 8.985 2.519 0.4-0.916 0.988-1.649 1.076-2.878-2.41-1.17-4.647-0.708-6.47-1.796-1.98 2.299-8.14-0.313-8.62 3.235zm-35.58 1.796c0.021-0.217 0.053-0.424 0.36-0.357 0.021 0.216 0.056 0.424 0.359 0.357-0.059-1.854 2.527-2.58 1.076-4.671-2.79-0.135-3.66 3.068-1.8 4.671zm56.78 1.799c0.974 1.185 1.913 2.398 3.234 3.235 2.75 5.309 0.764 13.05-3.234 16.531-0.91 0.792-0.887 0.105-1.437 0.359-0.021 0.009-0.62 0.989-0.719 1.08-1.071 0.959-1.916 0.907-2.876 1.076-0.616 1.907-2.934 4.01-2.518 5.75 1.685-0.234 2.474-1.36 3.234-2.516 1.019 0.445 2.22 0.445 3.235 0 7.443-4.741 13.272-23.106 3.598-29.471-0.094 0.559-0.79 0.249-1.082 0-0.45 1.347-1.14 2.455-1.43 3.965zm-62.53-1.439c-0.152 4.466 0.959 7.666 2.516 10.424 0.067-0.532 0.868-0.331 1.438-0.36-0.591-4.083-0.035-9.312-2.515-11.5 0.16 1.126-0.91 1.011-1.44 1.436zm10.42-1.437c-0.444 1.612-7.075 9.532-2.878 10.062 0.029 0.006 1.161-1.17 1.799-1.076-0.126-3.723 2.939-6.163 2.516-8.985-0.33 0.397-0.81 0.248-1.44-0.001zm7.91 6.827c0.846 0.474 1.635 1.003 3.234 0.72 0.434-2.802 1.56-4.911 2.156-7.546-4.26-0.188-4.66 3.483-5.39 6.826zm26.59-5.39c0.532 2.825 1.299 5.408 2.516 7.549 2.919-1.158 4.34-3.808 5.75-6.47-2.9-0.003-4.67-2.495-8.27-1.079zm-32.34 6.11c0.682 0.638 2.372 0.263 3.595 0.36-0.516-2.601 0.626-3.984 0.719-6.83-2.6 1.012-3.96 3.244-4.32 6.47zm14.73-6.11c-2.051 0.518-2.398 2.767-2.516 6.11 4.227 0.699 7.657-0.205 8.266-4.312-1.62 0.661-3.68-2.322-5.75-1.798zm-88.77 29.115c-0.414-0.427-0.407-1.272-0.36-2.159 0.867 0.149 0.782-0.655 1.797-0.36 0.74 0.1 0.339 1.34 1.079 1.439 0.92-4.01-0.429-7.596-0.72-11.141-0.525-6.396-5.219-7.209-7.907-10.424-0.327 0.628-0.123 1.792-0.718 2.155-0.918 0.19-1.258 0.477-1.797-0.357-0.435-1.512 0.581-1.576 0.718-2.518-0.508-2.366-4.469-1.281-4.671-3.952-1.979 0.217-2.591-0.421-3.594-0.719-1.35-0.401-3.035-0.188-4.313 0-1.652 0.24-1.575 0.389-2.875 0-0.591-0.176-1.553-0.041-2.157 0.36 0.325 1.135 1.084 1.576 0.36 2.875-2.135 0.971-2.346-0.948-3.595-1.799-1.258 2.217-3.807 3.144-5.391 5.034-3.78 0.916-7.031 4.197-7.547 7.187 1.207-0.583 2.439-3.343 3.953-1.437 0.075 1.033-0.091 1.825-0.718 2.156-1.098 0.26-1.31-0.369-2.157-0.36-0.538 2.097 0.996 2.121 1.08 3.595-0.476 0.003-0.329 0.629-0.72 0.72-1.427 0.228-1.939-0.457-2.515-1.08-1.568 2.554 0.108 5.166 0.36 7.189 0.596 4.829-2.248 10.354 1.438 12.58 0.326-0.751 1.06-1.097 2.155-1.079 0.086 0.512 0.592 0.605 0.72 1.079-0.123 0.954-0.898 1.258-1.079 2.156 0.75 0.567 1.464 1.17 2.517 1.436 0.18-1.614 1.544-2.047 2.875-2.515-0.108 0.708 0.486 0.713 0.718 1.079 0.092 1.41-1.3 1.333-1.078 2.875 1.498 0.424 2.513-0.421 3.953-0.36 0.564 0.635 0.101 2.296 1.079 2.516 1.922 0.325 3.095-2.978 4.673-0.72 0.093 1.053-0.813 1.106-0.72 2.159 0.581 0.617 1.503 0.892 2.875 0.717 0.398-0.679 0.459-1.697 0.72-2.516-0.803-0.155-1.283-0.635-1.438-1.436 0.662-1.568 2.647-2.296 3.233-0.36-0.455 0.623-1.214 0.942-1.078 2.156 0.955 0.125 1.214 0.945 1.438 1.799 6.083 1.424 7.945-3.34 11.501-5.034-0.006-1.062-1.79-0.322-1.796-2.156 0.664-0.775 1.05-1.825 2.875-1.439 0.453 1.893-0.745 2.132-0.72 3.595 6.626 0.503 7.312-9.93 9.705-13.656-0.3 0.62-1.09 0.79-2.12 0.72zm103.15-22.286c1.592 1.647 1.796 4.677 3.595 6.11 2.021-3.68-1.319-7.625-2.516-10.424 0.51 2.299-1.03 2.565-1.07 4.314zm-75.84-3.235c-0.322 0.626-0.802 1.384-1.437 0.72-0.239 2.767 1.045 3.785 0.36 6.11 1.018 0.375 1.497 0.375 2.516 0 0.53-2.086 1.03-6.607-1.44-6.83zm95.6 0.36c-0.059 0.418-0.567 0.389-1.076 0.36-0.978 3.217-3.533 4.852-4.674 7.906-0.796 0.035-2.765 1.939-1.077 2.156 2.247-2.311 6.254-5.841 8.626-8.625-0.24-0.958-1.08-1.318-1.8-1.797zm-117.88 16.174c3.682-3.147 4.247-9.412 6.828-13.659-0.08-0.278-0.01-0.708-0.358-0.72-2.8 4.11-7.22 7.842-6.47 14.379zm12.58-10.424c-0.095 2.852 0.234 5.276 1.797 6.47 1.271-1.591 5.285-2.939 4.312-7.906-2.74-1.123-4.21-0.538-6.11 1.436zm38.1-2.155c-1.387 0.29-1.787 1.568-2.516 2.515 1.527 2.907 3.475 5.391 6.11 7.189 0.974-1.088-0.231-1.521-0.72-2.518-1.07-2.194-2.501-6.391-3.235-6.827 0.22-0.02 0.43-0.055 0.37-0.359zm45.64 0.719c-0.345 1.091-2.146 0.726-1.796 2.516 2.203 0.79 2.013 3.975 3.952 5.031 1.66-2.183-0.62-6.198-2.15-7.547zm-89.13 4.311c1.22 2.255 0.81 6.139 2.875 7.549 0.94-0.5 1.97-0.907 2.157-2.158-1.358-2.475-2.148-5.52-2.517-8.985-0.079-0.281-0.3-0.418-0.718-0.36-0.74 1.184-1.12 2.714-1.8 3.954zm31.26 16.536c0.501-0.246 0.937-1.226 1.797-1.799 1.626-1.077 3.17-1.41 3.954-2.516 3.132-4.414-0.27-9.634-2.516-10.781-0.438-0.225-0.356-0.892-0.72-1.079-0.494-0.255-1.696-0.076-2.155-0.36-0.746-0.459-0.956-1.495-1.799-1.796-3.791-0.845-6.774-0.12-8.985 0-0.661 0.375-1.456 1.448-2.152 1.796-1.661 0.828-3.545 0.427-5.034 1.079-1.671 0.731-5.167 4.06-6.829 6.11-2.28 2.811-6.473 8.956-6.468 12.577 0.001 1.132 0.056 2.237 1.078 2.878 1.653 0.453 1.637-1.641 2.157-2.518 0.674-1.135 1.502-2.393 2.156-3.592 3.081-5.666 6.522-10.471 11.501-13.659 4.054-2.597 7.979-2.036 12.939-1.079 1.278 2.077 3.926 2.781 4.312 5.753-2.428 4.499-7.566 7.871-12.22 8.985-1.141 2.462-5.631 1.36-5.75 3.951 0.848 0.468 2.035 0.6 2.875 1.08 2.04-4.34 7.96-3.14 11.84-5.03zm52.48-17.255c-0.425 1.878 0.559 4.773 2.158 5.75 0.836-0.377 3.375-0.913 2.516-1.796-1.1-0.354-1.35-4.644-4.68-3.954zm46 0.36c-0.506-0.284-3.056-0.685-2.155 0.36 0.14-1.109 1.84 0.947 2.16-0.36zm8.63 5.033c0.383-1.583-1.854-3.574-3.235-4.314-1.497-0.805-4.136-1.509-5.03-0.36 1.158 0.921 3.422 0.954 3.954 2.875 1.466 5.309-5.917 7.584-4.674 11.141 2.47-1.23 8.1-5.712 8.98-9.342zm-15.09-4.674c2.32 1.059-1.06-0.477 0 0zm-82.31 6.83c2.048 0.328 3.2 0.997 4.674 1.076-0.726-2.39-2.62-3.606-4.317-5.031-0.269-1.287-0.83-2.284-2.152-2.515-0.65 2.199 1.98 3.606 1.8 6.47zm34.5-5.391c-0.208 3.323 2.605 3.624 2.878 6.467 1.585-0.447 2.77-1.299 4.671-1.436 0.01-4.949-2.42-5.695-7.55-5.031zm-8.62 7.546c2.759 2.276 4.394 5.671 7.549 7.549-0.093 1.05 0.813 1.103 0.72 2.155 1.117 0.196 1.545 1.088 2.516 1.437 3.281 5.583 7.575 10.155 6.826 19.769-1.287 1.705-2.454 3.533-4.671 4.311-1.688 0.752-2.623-0.397-4.313 0.72-0.454-1.144-3.262-2.811-3.955-1.436 1.533-0.097 1.434 1.441 2.519 1.796 3.457-0.249 5.54 1.509 9.702 1.436 6.048-5.636 3.934-20.585-0.717-27.312-0.573-0.828-1.778-1.618-2.519-2.518-0.819-0.998-1.485-2.562-2.152-3.232-1.612-1.611-4.048-2.047-5.394-3.594h-2.516c-1.252-1.67-2.649-1.34-3.954-2.516-0.05 0.609 0.06 1.1 0.34 1.419zm0.72 31.271c-1.129-2.039-2.574-1.529-4.314-2.875-0.365 0.471-0.351 1.325-0.719 1.796 1.862 0.717 4.831 1.623 5.033 2.875 1.366-1.229 2.617 2.237 3.951 1.079-0.48-1.65-2.54-3.33-3.95-2.88zm-2.88-38.46c-0.755-0.907-1.401 0.91-2.158 0 0.339 2.708 1.585 6.259 3.954 5.753-0.76-1.743-2.19-2.84-1.79-5.753zm2.16 0.72c0.831 4.203 5.25 4.814 8.626 6.47 0.084-2.6-1.562-3.469-1.796-5.75-0.761-0.795-2.58-0.538-2.876-1.796-1.87 1.049-2.41-0.118-3.95 1.076zm57.14 0.719c-2.126-0.091-3.36 0.713-3.595 2.515 2.001 1.978 4.691 2.276 7.189 4.314 1.519-1.84 4.621-4.001 3.592-7.189-2.15-0.354-5.66-0.956-7.19 0.36zm-66.49 0.36c0.205 1.521 0.053 3.451 0.72 4.671 1.211 2.223 5.388 4.019 7.189 2.875-0.302-0.913-1.724-0.892-2.516-1.796-0.988-1.123-1.41-4.384-2.159-2.515-0.061-2.214-0.801-3.75-2.515-4.314 0.02 0.625-0.27 0.926-0.72 1.084zm-35.22 0c-1.422 2.621-3.282 7.923-1.439 11.5 0.743-0.936 1.931-1.425 3.235-1.796-1.036-3.32-0.509-5.759 0-9.705-0.6 0.004-1.2 0.004-1.8 0.004zm64.69 3.235c-0.562 0.754-1.258 1.375-2.155 1.796-2.054 0.026-4.034 0.828-5.391 2.515-0.211 1.287 1.064 1.094 2.158 1.079 0.86-1.339 2.413-0.944 3.592-2.515 0.685 0.673 0.649-0.213 1.796 0 2.688-3.179 7.599-2.799 12.22-3.955 1.117 1.752 1.734 4.282 1.079 6.83-1.342 1.053-2.438 2.352-3.234 3.955h-1.437c-1.723 3.068-6.8 2.781-8.628 5.75 1.509 1.702 2.551-0.459 3.954-1.079 0.296-0.129 0.515 0.462 0.72 0.36 0.24-0.12-0.029-0.582 0.359-0.72 2.501-0.892 4.905-2.39 7.55-4.311 3.013-2.197 5.434-4.724 5.03-9.705-4.41-7.053-11.4-0.024-17.62-0.001zm-58.94-2.156c-1.808 0.488-2.604 4.884-1.076 6.827 4.28 0.16 5.78-8.1 1.08-6.822zm24.8 6.102c2.149 0.802 3.812 0.182 5.75 1.439-0.149-1.228-1.199-1.857-1.799-2.875-0.605-1.035-0.702-2.509-1.796-3.235-0.81 1.461-2.31 2.242-2.15 4.67zm-38.09-2.87c-0.076 2.951-0.006 5.759 0.356 8.269 1.491-0.1 1.404 0.471 2.516 0 1.07-3.197-0.457-6.961 0.719-9.705-1.64 0.049-1.77 1.599-3.6 1.435zm76.19 2.159c-0.097 2.132 0.393 3.679 0.72 5.39 4.01-0.181 6.175-2.211 6.47-6.11-1.64-1.683-5.09 0.959-7.19 0.719zm-97.76 2.151c0.339 6.09-3.555 7.947-4.314 12.939 0.999 1.755 1.552 3.96 3.595 4.671 2.503-1.091 4.592-2.598 6.11-4.671-2.55-5.639 2.05-11.038 2.157-15.095-2.71-1.052-5.33-0.698-7.56 2.155zm127.59-1.792c2.354 1.6 3.623 4.285 5.033 6.827 0.243-0.713 1.094-0.822 1.437-1.436-0.84-2.72-3.64-7.029-6.47-5.392zm-7.91 5.392c1.123 2.829 2.551 5.355 4.674 7.187 2.683-0.67 4.271-2.434 5.75-4.312-1.144-3.53-3.146-6.201-6.47-7.549-0.9 1.97-2.58 3.17-3.95 4.67zm-106.38 4.67c2.804-0.304 3.922-2.135 6.469-1.796-0.346-2.53-0.202-5.548-1.438-7.189-1.98 2.7-3.86 5.5-5.03 8.99zm83.38-2.87c0.179-1.53-0.345-4.732-1.438-6.11-1.55 1.71 0.43 4.71 1.44 6.11zm44.56-3.24c0.497-0.015 0.789 0.169 1.082 0.36 0.151-0.798 0.824-1.948-0.363-2.156 0.27 1.11-0.98 0.69-0.72 1.8zm-74.39-1.08c1.529 2.904 3.381 5.484 4.313 8.985 1.969-0.19 2.39-1.924 3.235-3.235 1.39 0.655 3.551-2.404 1.799-3.954-3.1 0.32-6.08-1.46-9.34-1.79zm22.64 2.16c1.007 1.629 1.574 3.697 3.592 4.312 0.69-2.141-0.289-5.037-1.436-6.467-0.29 1.14-2.37 0.5-2.15 2.16zm-46.36 46.72c2.875 3.016 10.047 5.943 12.939 2.158 0.035 0.69 1.34-0.559 1.796 0.357 2.627-2.577 5.894-4.171 6.47-8.626 0.374-2.896-0.368-6.142 0-9.345 0.523-4.542 2.702-8.096 3.234-11.86 0.831 0.713 0.401-0.088 1.08-0.357 0.682-3.691 1.45-7.555 0.717-11.144-0.583-2.861-2.744-4.797-3.235-7.187-3.434-2.907-8.593-2.697-11.857-1.799-1.673 1.846-2.267 4.65-3.595 6.83-0.356 0.585-1.126 0.766-1.436 1.439-0.729 1.574-0.954 3.273-1.799 5.031-1.401 2.91-2.639 5.095-3.952 7.906-0.912 1.945-1.936 3.445-2.158 3.954-0.758 1.74-0.556 3.203-1.076 5.031-0.325 1.132-1.328 2.39-1.799 3.595-1.334 3.404-2.103 5.882-4.314 7.905-2.843 1.322-4.316 0.029-5.391 1.799 1.196 0.96 2.803 1.513 5.034 1.437 1.661-1.36 2.632-3.13 3.951-3.952 0.021-1.179 1.021-1.374 0.72-2.875 0.717-0.362 1.258-0.897 1.799-1.438 3.878-8.713 6.347-18.605 9.701-26.956 0.925 0.957 0.515-0.69 1.437-0.719 1.328-5.347 3.293-5.633 9.348-5.75 1.299 1.296 2.653 1.743 3.592 2.875 3.106 3.747 2.252 10.927 0.72 15.455-1.013 2.998-2.29 4.955-2.875 7.906-0.369 1.857-0.015 3.823-0.36 5.753-0.471 2.639-2.176 4.853-2.155 6.827-1.193 1.479-3.765 2.913-4.671 3.234-2.007 0.711-4.03 2.264-6.113 1.799-0.321-0.073-1.906-0.897-2.155-1.079-1.056-0.775-1.846-2.281-2.875-3.235-1.176-1.091-2.311-1.717-3.235-2.515-2.16 3.25 2.31 4.5 2.54 7.56zm3.23-38.1c0.664-1.255 1.428-2.407 1.439-4.314-1.872-0.764-2.123-3.147-3.595-4.312-2.1 2.04-0.17 7.61 2.15 8.62zm86.98-3.59c-2.065 1.615-7.312 3.329-6.113 6.11 4.537-3.252 11.065-4.51 14.017-9.345-3.65-1.11-5.9 1.66-7.91 3.23zm-16.17-1.8c3.826 7.09 10.117 16.879 6.107 27.315-2.34 2.451-5.153 4.426-7.903 6.47-2.521 5.628-7.142 9.149-7.549 16.892-1.179 0.562-1.585 0.532-2.519 0.719-1.895 3.074-4.117 6.342-6.826 7.547-1.869 0.833-4.332 0.257-5.75 1.079-0.456-0.857-1.603-0.784-2.516-1.079-0.965-0.311-2.105-0.919-3.595-1.076-0.851-1.308-1.737-2.577-3.234-3.235-0.512 0.688-1.366 1.029-1.437 2.155 4.586 4.048 10.764 5.619 16.172 5.391 0.576-1.343 2.267-1.564 3.951-1.796 0.287-1.044 1.091-1.305 1.799-1.799 0.787-0.55 2.199-0.9 2.875-1.436 1.954-1.551 2.989-4.832 4.312-7.549 0.988-2.024 2.41-3.952 3.234-5.751 0.363-0.786 0.035-1.682 0.363-2.515 0.938-2.404 2.98-4.42 3.591-6.83 5.037-2.39 8.608-6.247 11.501-10.781v-5.03c-2.296-3.934-3.825-8.634-7.187-11.503-1.474-3.077-2.954-6.151-5.033-8.625-0.09 0.48-0.49 0.68-0.33 1.43zm26.59 1.44c0.36 1.711 1.211 3.776 1.437 6.11 0.315 3.267-0.913 6.844 0.359 8.985 1.021-1.383-0.009-1.322 2.155-1.796 0.536-5.888 0.688-14.282-2.872-15.814 0.91 0.71-1.39 1.22-1.08 2.52zm-100.63 9.71c0.029-0.231 1.538-2.042 1.439-3.595-2.472-2.08-2.656-6.449-5.031-8.625-1.22 3.81 0.89 11.24 3.59 12.22zm65.77-10.43c-0.538 1.959-1.188 6.797 1.077 7.906 0.877-2.714 3.875-3.314 6.47-4.314-0.463-1.574-1.068-3.004-1.796-4.312-2.7 0.12-3.09 1.22-5.75 0.71zm-32.35 3.24c1.226-0.094 1.904-0.734 2.159-1.799 0.678 0.685 1.591-0.231 1.436-1.436-2.04-0.62-3.24 1.16-3.6 3.24zm-40.97 3.23c0.512 1.439 1.497 3.255 2.155 4.674 0.775 1.662 1.369 3.633 2.875 3.955 1.486-3.697-2.696-4.691-2.155-8.628-1.398-1.237-1.343-3.928-2.155-5.75-0.626 0.029-1.117-0.079-1.439-0.36-0.48 1.76 0.08 4.28 0.73 6.12zm22.28-4.31c1.523 3.507 3.759 6.306 5.75 9.345 2.48-4.69-1.81-12.58-5.75-9.35zm48.16-0.72c-0.456-0.021-0.497-0.459-1.076-0.36-0.283 0.796-1.258 0.901-1.796 1.439-0.076 4.507 0.444 8.418 1.437 11.86 4.81-1.61 1.12-8.46 1.44-12.94zm-75.47 5.75c0.849 1.427 1.41 3.141 1.796 5.033 1.954 2.837 2.656 6.929 6.11 8.266 1.564-4.402-4.007-7.354-3.951-12.58-1.595-1.644-2.183-4.291-3.598-6.11-0.74 1.18-0.2 3.64-0.36 5.39zm22.64-1.08c3.665 3.165 5.297 8.359 7.906 12.577 1.31-0.605 1.644-2.191 1.438-4.312-3.387-3.706-4.788-7.853-7.546-12.58-0.83 1.21-2.21 1.86-1.8 4.31zm-36.3-3.59c-0.021-0.219-0.053-0.427-0.358-0.359 0.015 0.494-0.169 0.79-0.36 1.079-6.993 0.523-9.741 7.195-15.814 9.702-1.599 4.51-6.07 6.148-7.188 11.144-0.714 0.003-0.457 0.979-1.438 0.716-2.953 5.435-6.301 10.472-11.141 14.02-2.311 0.684-4.202 1.787-5.392 3.592-4.029 2.465-9.859 5.489-14.735 3.954-3.859-4.577-3.958-10.17-2.157-16.892 2.422-3.407 4.411-7.084 8.267-8.625 1.655-0.664 4.749 0.073 5.391-2.518-2.886-1.784-6.024 0.708-9.344 1.439 0.104 1.064-1.04 1.337-1.797 2.155-1.745 1.887-1.97 3.171-3.235 5.391-0.703 1.237-2.056 1.96-2.515 2.878-1.015 2.016-1.435 8.079-1.08 10.422 0.641 4.217 3.938 7.282 7.189 9.345 1.898-0.103 3.573 0.021 4.671 0.719 0.246-1.994 1.149 0.023 1.438 0-0.105 0.009 0.372-0.628 0.72-0.719 0.823-0.22 2.049 0.128 2.515 0 1.828-0.509 2.836-1.91 3.955-2.875 1.75-1.513 2.517-1.665 3.953-2.876 1.168-0.985 2.299-1.842 3.234-2.515 0.642-0.465 1.097-0.805 1.798-1.079 3.172-4.496 7.771-7.564 9.703-13.3 5.061-3.562 7.09-10.161 11.86-14.016 0.05-1.267 1.03-1.606 1.08-2.875 2.737-1.044 3.909-4.063 7.188-4.671 1.328-0.249 2.739 0.176 4.672 0 3.179 1.615 4.311 5.271 5.391 8.985 0.579 1.185-1.252 2.542 0.359 2.515 4.35-3.84 0.83-17.76-6.83-14.73zm58.22 0.36c-1.088 0.833-2.156 3.182-3.232 4.671 1.507-0.29 2.051-1.544 2.516-2.875 1.035 1.067 0.623-0.901 1.799-0.719 0.047-0.471 0.053-2.601-0.363-1.437 0.19 2.03-0.53 0.21-0.73 0.37zm2.88 2.51c-1.579 1.652-2.366 4.104-3.954 5.75-1.293 0.044-2.601 1.524-2.876 3.595 0.463 0.614 0.743 1.413 1.799 1.436 1.685-3.439 3.943-5.434 5.751-9.345 1.248 0.526 4.732-2.887 3.234-3.952-1.71 0.81-2.09 2.73-3.95 2.51zm61.46-0.36c-1.21-1.711-0.333 4.545-1.076 6.47-0.959 0.43-1.567 2.583-2.158 3.952-0.509 1.19-2.486 3.021-0.72 3.594 3.2-0.97 4.74-7.31 3.96-14.01zm-39.18 9.71c0.217 2.126 0.368 4.917 1.796 6.11 1.135-0.547 1.199-2.158 1.799-3.235-3.121-2.39-1.755-9.266-3.595-12.939-0.5 2.89-0.33 6.73 0 10.07zm-66.13 7.55c-1.023-0.416 0.579-0.416 0.72 0 0.299-2.577-1.512-3.039-2.516-4.312-2.252-3.741-2.904-9.076-5.03-12.939 1.632 4.574-0.942 11.407 2.872 14.016-0.491 0.465-0.354 1.562-0.356 2.516 0.73 0.108 0.956 0.72 1.438 1.079 0.26-1.54 2.57 0.07 2.88-0.37zm99.92-16.18c0.81 4.96-5.131 7.672-1.437 11.141 1.149-3.106 4.812-7.318 2.516-11.5-0.21 0.75-0.57 0.76-1.08 0.36zm-50.32 0.36c-1.433 1.802-3.404 3.068-4.312 5.394-1.386-0.331-3.012 4.136-2.878 6.827 1.019-0.295 0.931 0.509 1.796 0.359-0.176-1.135 0.649-1.269 0.363-2.515 0.45 0.079 0.73 0.559 0.719-0.36 1.656-2.536 2.773-5.61 6.827-5.75 0.52-1.59-0.41-3.89-2.52-3.95zm28.75 0.72c-2.594 3.755-5.013 7.683-6.47 12.58-2.188 2.123-3.74 4.885-5.391 7.546-0.979-1.035-1.43 1.714-2.155 0-0.941 1.237-0.848 3.688-0.359 5.394 1.182 0.767 2.088-0.234 2.515-0.72 0.146-0.167 0.881 0.114 1.08 0 1.228-0.702 1.664-0.897 2.155-1.438 2.519-2.771 5.735-7.447 6.47-11.501 1.488-2.942 2.942-5.923 4.314-8.985 1.406-0.866 2.708-1.84 3.591-3.235-1.57-0.42-3.63-0.29-5.75 0.36zm29.47 8.98c0.778-2.281 1.568-7.061 0.363-8.266 0.48 3.13-1.37 5.82-0.36 8.27zm-86.25 5.4c1.389 0.312 1.277-0.878 2.155-1.076-0.644-5.347-2.761-9.219-5.388-12.58h-1.082c-0.14 4.8 4.01 8.12 4.31 13.66zm-47.8-8.63c3.656 0.41 6.554-0.208 6.47-4.671-2.9 0.82-4.9 2.53-6.47 4.67zm8.62-0.72c1.561-0.125 2.005 0.869 3.234 1.077 0.745-2-0.755-4.065-2.516-4.671-0.45 0.97-0.87 1.99-0.71 3.59zm112.49-2.87v1.799c1.557 0.442 2.243-2.044 1.082-2.156 0.25 1.19-0.74 0.58-1.08 0.36zm-137.29 2.15c-0.652 1.023-2.195 1.158-3.593 1.436-0.913 4.671-0.11 6.789 3.233 5.75 0.665-0.205 1.462-0.711 2.157-0.717 1.37-2.24-0.02-5.28-1.8-6.47zm124 2.16c1.275 0.12 0.883 0.988 2.158 0.359-0.485-0.836 0.047-2.685-1.438-2.515-0.21 0.75-0.89 1.02-0.72 2.15zm-35.22 7.55c0.824 1.448 3.498 1.057 5.75 1.077 2.743-1.72 4.101-8.049 0.72-10.062-2.9 1.12-5.63 4.06-6.47 8.98zm40.61-6.47c-0.72 0.36-0.567 1.588-1.799 1.436-0.146-1.05-1.231-1.167-1.799-1.796v3.952c2.234-1.08 3.849-0.696 4.674-2.875-0.784-1.012-1.343-2.25-2.158-3.232-0.08 1.29 1.09 1.32 1.09 2.52zm-70.45 5.39c0.761 1.761 0.173 4.674 2.156 4.671 1.312-4.524-1.001-8.271-2.156-11.5h-1.079c-2.38 3.02 0.03 4.38 1.08 6.83zm-64.69 0.36c0.699-2.051-0.567-4.51-1.438-6.11-0.3 2.26-1.61 5.93 1.44 6.11zm22.29-5.03c-0.029 0.011-0.216 0.637-0.359 0.719-1.55 0.892-2.793 0.942-4.313 1.799 0.198 0.521-0.419 1.857 0.36 1.796 1.965 0.462 3.397-0.702 4.672-1.079 3.28-0.962 6.742 0.412 11.5-0.36v-2.156c-1.605-0.164-4.854-2.425-6.47-1.436-0.019-0.219-0.053-0.427-0.358-0.36-1.02 1.66-3.35 0.49-5.03 1.08zm105.3 6.47c3.683-0.134 1.536-4.738 1.08-6.826-1.05 1.45-2.77 4.89-1.08 6.83zm31.27-3.6c-1.286 0.234-2.515 1.097-2.878 1.08-0.141-0.006 0.062-0.875-0.356-0.72-0.021 0.009-0.562 0.977-0.72 1.079-1.919 1.246-5.832 1.085-4.314 3.954 2.847-0.874 6.648-1.968 9.346-3.954 2.994-0.097 2.866-0.359 5.03-1.439 0.386 0.813 1.352 1.047 1.799 1.798-0.359 0.846-1.079 2.41-2.155 1.437-2.057 4.282-8.77 5.051-11.501 7.549-0.761-0.497-2.813 0.117-2.519 1.796 2.457 0.796 3.438-1.343 6.471-1.796 0.944-1.811 3.211-2.299 5.39-2.875 0.126-1.434 2.235-0.884 2.516-2.155 3.276-1.278 5.882-3.227 6.113-7.549-4.54 0.42-8.82 1.18-12.22 1.79zm-23.72 0.36c-1.778 2.778-5.678 3.431-6.113 7.549-1.925 1.07-3.533 2.457-3.234 5.75-4.177 1.69-6.663 5.075-8.266 9.345 0.631 0.928 2.506 0.608 3.594 1.077 0.564-0.272 0.535-1.139 1.437-1.077 0.415-0.427 0.409-1.27 0.362-2.155 1.51 0.383 1.105-1.012 1.437-1.799 0.849-2.021 2.53-4.442 3.595-5.75 1.731-2.13 3.849-3.768 6.47-5.031 1.234-1.889 2.989-4.738 1.796-7.908-0.36 0.01-0.72 0.01-1.08 0.01zm-72.24 6.47c0.287-2.442-0.714-3.598-1.436-5.031-1.24 1.71 0.16 3.85 1.44 5.03zm-25.16-4.31c-0.74 1.158 0.714 2.472 0.717 2.516 0.187 1.521-0.708 2.623-0.717 2.875-0.006 0.12 0.854-0.05 0.717 0.359-0.053 0.167-0.878-0.064-0.717 0.36 0.085 0.222 0.808-0.117 0.717 0.356 0.009-0.038-1.568 1.182-0.717 1.799 1.328 2.717 3.787 7.002 7.187 5.391-0.544-5.806-3.241-9.456-5.031-14.016-0.45 0.13-1.81-0.21-2.16 0.35zm-7.55 1.44c-0.977 0.257 0.258-1.693-0.719-1.437-0.2 0.73 0.11 2.69 0.72 1.44zm2.52-1.08c-0.047 2.203 1.244 3.065 2.514 3.952 0.819-1.079 0.158-3.083 0-4.312-1.07 0.62-1.82-0.12-2.51 0.36zm-46.36 0.72c-1.388 0.661-3.901 1.354-5.032 1.799-1.581 0.62-1.603 0.591-3.233 2.156-4.485 4.302-7.114 17.355 0.358 19.049 0.899-1.138 2.98-1.094 4.312-1.799-0.368-7.914 3.208-11.108 6.11-14.735 1.157-1.441 1.82-3.223 1.438-5.75-1.4-0.91-2.7-1.33-3.96-0.73zm17.6-0.36c-1.104 0.4-2.455 0.661-3.234 1.079-3.098 1.667-8.257 5.426-10.423 7.549-2.766 2.712-5.914 6.017-4.671 11.141 0.947-0.345 2.211-0.62 2.875-1.438 1.556-1.916 1.35-5.364 2.875-7.546 0.347-0.498 1.308-0.556 1.797-1.08 0.731-0.777 0.921-1.661 1.438-2.155 1.868-1.793 3.435-2.734 5.031-4.674 1.355-0.339 2.069-0.392 3.595 0.359-0.13-1.14 2.5-2.75 0.7-3.23zm12.94 8.98c0.077 1.315 0.493 1.38 0 2.518-2.061 3.449-4.047 6.974-4.672 11.86 0.931 0.387 1.335 1.299 2.515 1.437 1.847-8.936 5.516-16.049 7.907-24.44-0.079-0.28-0.301-0.415-0.719-0.359-2.01 2.65-3.29 6.05-5.03 8.98zm64.7-3.59c2.647 0.9 4.973-0.479 5.031-3.235-0.953-0.318-2.983-0.868-3.951-2.158-1.04 1.12-2.04 3.36-1.08 5.39zm-66.49 1.07c0.795-1.416 3.062-4.601 1.797-5.75-2.51 0.38-5.46 4.37-1.8 5.75zm131.18 3.6c-0.202 3.019-1.48 4.268-2.516 7.189-1.135-0.872-1.532 1.392-2.516 1.796-3.79 2.372-6.671 4.062-11.857 3.594 0.176 1.136-0.649 1.27-0.362 2.516 1.626 1.082 3.498-0.201 4.674-0.72 1.1-0.26 1.059 0.62 2.155 0.36 2.337-0.901 3.647-2.819 6.47-3.235 3.048-2.901 5.169-7.244 5.751-12.937 0.242-2.39 0.195-5.086-0.36-7.189-0.494 0.015-0.789-0.169-1.076-0.359-2.84 2.69-0.14 5.8-0.35 8.99zm-74.04-3.6c0.831-0.438 0.904-2.48 1.077-3.235-0.12 0.527 1.204-1.755 0-1.796 0.362 1.083-0.802 0.638-1.439 0.72-1.866 1.608-3.235 3.712-6.107 4.312-0.269 1.828 0.357 2.758 1.437 3.234 1.19-1.38 3.46-2.38 5.03-3.22zm-47.8-2.15c2.498 0.146 1.898 1.377 4.672 1.436-0.765-1.752-1.443-3.586-3.955-3.592-0.2 0.75-0.88 1.02-0.71 2.15zm100.28 1.8c0.07-0.951 2.305-2.951 0.357-3.592-0.52 1.16-2.54 2.77-0.36 3.59zm-66.13 1.43c2.605 2.185 3.527 6.055 4.311 10.064 1.035-0.044 2.354 0.196 2.878-0.359-0.283-4.511-1.117-8.471-4.313-10.064 0.254-1.811-0.646-2.469-1.08-3.595h-1.076c-0.2 1.37-0.88 2.26-0.72 3.96zm30.54-2.15c-2.469 0.245-5.317 4.203-7.903 1.796-0.321 0.638-1.006 0.912-0.72 2.155 3.797 1.454 9.015-0.272 10.062-5.03-0.979-0.032-0.722 0.6-1.438 0v1.08zm-89.13 0.36c-1.962 2.951-5.325 4.501-6.47 8.269 3.854-1.179 5.306-4.759 7.188-7.908-0.08-0.28-0.3-0.42-0.72-0.36zm11.86 9.34c2.226-2.852 1.246-7.312-1.078-9.345-2.73 2.15-0.54 7.32 1.08 9.35zm94.53-8.27c1.349 3.706 0.325 8.769-2.875 8.626-0.195 1.179 0.185 3.618 1.077 2.515 0.222-0.157 3.363-1.962 4.313-3.592-0.301-1.108-0.582-3.354 0.72-2.518v-2.875c-1.843 0.047-0.655-2.939-2.155-3.235-0.21 0.52-0.57 0.88-1.08 1.08zm-68.65 11.14c0.155 2.773-0.126 7.257-0.72 10.064-0.19 0.896-1.167 1.887-1.436 2.875-0.334 1.211-0.029 2.483-0.363 3.595-1.208 4.06-4.315 7.684-5.389 11.501-0.304 1.079-1.729 3.492 0.359 3.954 1.692-1.459 1.065-3.077 1.797-5.033 1.103-2.951 3.349-6.392 5.031-8.626 0.605-0.801 1.699-1.655 2.155-2.515 1.434-2.691 2.96-10.896 2.159-14.735-0.849-4.063-4.502-5.704-5.394-10.422-1.363 0.146-1.523-2.764-2.514-1.799 1.89 3.06 4.07 6.93 4.31 11.14zm56.43 10.43c-1.626-0.129-1.646 1.149-2.875 2.155-2.237 1.316-6.502 1.849-8.266 2.516-2.19-0.693-7.146-3.212-7.546-7.906-1.585-0.023-2.937 0.179-3.235 1.439 1.901 4.486 5.102 7.76 8.623 8.985 1.941 0.672 5.498 0.766 7.908 0 1.393-0.445 4.037-2.425 4.312-2.519 1.006-0.334 1.428-0.969 2.158-1.796 1.404-1.594 2.469-2.995 3.592-4.671 0.989-1.478 2.033-3.106 2.159-3.595 0.965-3.771-0.685-6.104-1.439-8.985-0.585-2.231-0.351-4.771-1.796-6.47-0.497 0.015-0.79-0.17-1.079-0.359-0.73 6.87 2 16.79-2.49 21.2zm8.26-15.1c0.497-0.576 1.772-0.383 2.153-1.079-0.117-1.319 0.31-3.182-0.357-3.951-1.193-0.441-1.126 0.021-2.878-0.36-0.48 1.56-0.03 4.35 1.09 5.39zm35.22-1.79c0.193 2.319-0.009 5.037 1.796 5.751 1.802-1.393 4.344-4.297 3.592-9.346-2.78 0.21-3.58 2.41-5.39 3.6zm-26.23 3.23c0.304 1.972 2.035 2.519 3.592 3.234 2.094-3.299 5.276-5.504 6.829-9.342-0.079-0.28-0.301-0.418-0.72-0.359-2.24 3.16-5.62 5.16-9.7 6.47zm49.96 4.67c1.755-2.816 2.062-8.107-1.079-11.141-0.094 0.559-0.787 0.248-1.079 0-1.17 2.655 0.228 6.18-0.357 9.345-0.751 4.06-3.39 6.563-6.112 8.266 0.026 1.77-0.305 3.898 1.438 3.951 3.06-2.33 5.78-8.16 7.19-10.42zm-140.89-5.39c3.788 4.718 6.939 10.07 13.658 11.86 1.802-4.706-2.92-5.461-4.672-7.189-0.535-0.529-0.553-1.544-1.078-2.155-0.59-0.69-1.321-0.819-1.797-1.439-1.484-1.924-2.597-4.659-4.313-5.391-1.08 0.97-1.33 2.76-1.8 4.32zm37.74-1.79c-0.009-1.07 0.032-2.188-1.079-2.155-0.02 1.1 0.32 1.83 1.08 2.16zm92 5.74c-0.912-0.207-1.752-1.438-2.516-0.716-0.438 2.117 1.41 1.941 2.159 2.875 0.603 1.073 0.725 2.629 2.152 2.875 3.989-1.548 5.782-6.958 4.317-11.86-4.13-0.59-5.28 2.6-6.11 6.82zm-140.52 3.6c2.432-3.846-1.207-7.514-2.875-10.421-1.78 3.82-0.11 10.37 2.88 10.42zm49.95-7.55c0.021-0.62-0.275-0.921-0.717-1.079-0.01 0.63 0.28 0.93 0.72 1.08zm74.04 0.36c-0.167 2.683 0.934 4.099 2.155 5.391 1.149-1.307 0.576-5.724-1.079-6.47-0.19 0.52-0.55 0.88-1.07 1.08zm-130.82 10.07c1.157 1.636 3.75 2.656 5.032 3.595 2.005 1.469 5.04 3.976 6.828 4.671 1.619 2.296 3.711 6.563 5.032 8.985 0.686 1.261 1.218 3.215 1.438 4.674 0.566 3.773 2.066 5.648 3.593 7.546 1.91 2.375 4.911 5.528 7.907 2.519 2.148 2.054 5.441 1.661 7.907 1.796 1.591-3.322 7.207-2.617 9.345-5.391 1.98-0.62 3.606 0.023 5.391-0.72 1.942 0.746 3.809 2.905 6.47 1.796 0.573 1.475 2.363 0.916 3.235 0.72 1.895-3.17-1.72-6.622-4.314-5.391-4.209-3.425-7.561-0.997-11.141 1.08-0.387 0.222-1.346 0.087-1.796 0.356-1.963 1.176-3.858 2.978-5.75 3.954-2.721 1.404-5.713 0.05-8.627 0.72-1.209-1.029-3.887-2.229-5.032-2.155-4.064-6.839-5.476-16.33-10.783-21.925-1.515-0.614-1.818 0.216-2.875-0.36-0.11-1.088-1.111-1.283-0.718-2.875-1.692-1.541-3.483-2.986-6.11-3.595-1.834-2.597-3.658-5.209-4.672-8.625-3.53 1.74-2.4 5.74-0.37 8.6zm15.81-6.11c4.432 7.373 8.378 16.317 8.268 26.238 3.757-2.48 2.946-6.054 1.797-10.424-0.503-1.91-0.531-4.303-1.079-5.75-0.604-1.598-2.53-3.212-3.233-4.674-0.775-1.609-0.666-2.077-1.438-2.875-0.708-0.105-0.714 0.485-1.079 0.719-0.136-2.258-1.16-3.633-2.516-4.671-0.05 0.65-0.24 1.18-0.72 1.42zm25.16 2.51c-0.573 1.117-0.573 4.275 0 5.393 3.393 0.135 7.347-0.389 8.625-1.799 0.318-0.348 0.711-0.044 1.079-0.359 2.831-2.419-0.544-4.168-1.799-6.467-1.78 2.92-4.16 4.8-7.9 3.24zm66.13-1.08c1.948 0.056 2.861 2.495 4.312 3.235 0.924 0.468 3.039 1.202 3.954 0-2.913-1.758-5.665-3.68-8.625-5.391-0.62 1.27 0.25 0.88 0.37 2.15zm21.21 0c0.532 0.188 0.907 0.532 1.437 0.72 0.471-1.073 0.015-2.401-1.079-2.875 0.26 1.11-0.63 1.06-0.36 2.16zm-45.65 2.88c2.041 0.267 4.381-0.479 5.75 0-0.123-1.321 2.065-0.333 1.439-2.155-5.364-0.321-8.277 0.497-12.221-2.519-1.88 2.98 2.66 4.37 5.03 4.68zm24.8 11.86c1.299-0.021 1.743-0.895 2.878-1.079 0.438-4.15-0.755-6.675-1.439-9.704-1.941-1.17-3.548-2.68-5.391-3.952-0.92 5.73 1.51 11.17 3.95 14.73zm-113.57-11.5c1.607 4.262 3.75 7.99 7.188 10.421 0.689-1.108 1.913-1.682 1.797-3.595-2.731-2.179-5.585-4.238-6.47-8.266-0.512-0.085-0.605-0.591-1.078-0.719 0.07 1.29-1.69 0.72-1.44 2.17zm148.43 29.83c0.695-1.45 2.655-2.439 3.595-4.313 0.622-1.246 0.529-3.355 1.079-5.031 0.324-0.997 0.936-1.258 1.076-2.155 0.567-3.668 0.196-9.105-0.36-12.939-0.459-3.168-1.851-6.324-3.951-7.549h-0.72c-1.403 2.729 0.986 6.938 1.439 11.503 0.743 7.52-0.781 11.711-3.598 16.531-1.503 0.412-2.026 1.805-3.592 2.155 0.108 3.224-3.112 3.118-3.234 6.11 4.29-0.3 5.35-3.53 8.26-4.32zm-61.1-22.29c4.124-1.425 7.163-2.103 9.348-5.75-6.048 0.239-12.105 1.249-15.454-3.595-2.88 4.16 1.93 8.77 6.1 9.34zm-61.81 2.16c-0.04-4.633-2.656-6.686-3.953-10.062-3.79 4.09 1.71 7.64 3.95 10.06zm97.4-8.26c-0.082-0.638 0.362-1.799-0.72-1.436-0.1 0.82 0.08 1.35 0.72 1.44zm-17.62 3.59c2.111 1.243 1.623 5.087 4.313 5.751-0.113-2.916-1.623-7.453-2.875-10.422-0.3 1.73-1.9 2.17-1.44 4.67zm40.97-4.31c-1.132-0.176-1.267 0.649-2.516 0.359-0.046 2.919 1.697 6.847 3.235 9.345 0.325 1.234 0.211 2.904 1.439 3.235 0.58-5.62-1.21-9.93-2.15-12.94zm-149.87 2.15c5.076 14.159-8.213 17.736-9.345 29.111 1.828 0.974 2.517 0.137 3.953 0.719 0.613-0.944 1.498-1.617 2.875-1.799 0.553-1.362 1.585-2.246 2.875-2.875 0.826-1.977 1.883-3.019 2.875-4.671 0.341-0.567 0.803-0.953 1.08-1.438 2.47-4.344-0.264-7.572 1.438-12.937-2.251-1.945-2.744-5.643-5.032-7.55-0.01 0.73-0.99 0.47-0.73 1.45zm61.46-0.35c-0.491 1.138-0.076 1.202 0 2.515-2.937 3.829-1.047 9.582 0.36 13.656 2.594 1.363 3.922 3.986 6.829 5.034 0.772-1.527-0.708-2.53-1.439-3.595-2.138-4.691-2.887-10.77-2.515-17.971-0.076-0.403-0.398-0.562-0.72-0.72-0.7 1.08-1.7 0.8-2.52 1.07zm25.88 18.68c1.539 0.737 2.942 1.608 3.592 3.234 1.39 0.407 2.498 1.095 3.235 2.156 1.582-0.026 2.937 0.178 3.234 1.436 5.733 0.428 6.417 3.674 10.781 5.394 0.041 0.916 0.661 1.258 1.082 1.796 2.334 0.185 3.901 4.241 8.622 3.235 2.826 1.193 4.625 1.693 8.266 1.436 0.205-0.012 1.677-0.755 1.799-0.717 0.682 0.211-0.459 0.945 0.36 0 0.175-0.201 0.812 0.34 0.72 0.36 1.658-0.34 1.626-0.816 2.155-1.079 0.383-0.193 1.056 0.192 1.437 0 0.977-0.492 1.836-1.872 2.878-2.516 0.339-0.214 1.073-0.526 1.436-0.72 1.208-0.641 2.753-1.465 4.671-2.155 4.048-5.18 7.974-10.479 7.189-20.485-2.023-2.65-1.91-7.436-4.312-9.705-0.251 0.708-0.959 0.956-1.799 1.076 2.297 8.216 1.296 14.823-2.155 20.846-1.398 2.439-2.012 3.158-3.954 5.033-0.813 0.784-1.746 1.925-2.516 2.516-4.972 3.825-11.319 3.194-16.175 2.155-0.637-0.137-1.708 0.146-2.155 0-0.289-0.094-0.547-0.994-0.717-1.076-0.57-0.277-0.971 0.243-1.438 0-2.054-1.073-3.092-2.085-3.954-3.595-6.848-0.579-8.085-6.771-14.735-7.549-0.284-2.24-4.011-1.937-5.391-2.875-0.693-0.468-0.588-1.567-1.08-1.796-0.444-1.164 1.165-0.275 0.72-1.439 1.498 0.781 2.776 1.778 5.031 1.799 0.605 1.79 2.246 2.548 4.674 2.516 0.767 1.149 2.234 1.597 3.592 2.155 1.067 2.051 3.416 2.817 5.033 4.314 1.343 0.032 1.023 0.4 2.156 0 2.029 2.042 4.231 3.913 7.188 5.031 2.2-0.904 2.483-1.437 5.031-1.08 1.094-1.202 3.328-1.494 4.674-3.234 1.094-1.416 2.6-4.606 2.872-6.467 0.356-2.428-0.608-4.498-0.717-7.189-3.554-0.307-1.629 3.46-1.799 5.031-0.345 3.272-1.881 8.058-5.03 8.984-0.41 0.123-2.674 0.105-3.592 0-3.966-0.444-7.728-2.396-8.985-5.03-1.477 0.135-2.74-1.387-4.674-1.796-1.816-3.253-5.317-4.507-7.189-6.83-0.702 0.378-1.433 0.72-2.155 1.08-0.512-0.088-0.605-0.594-1.079-0.72-0.983 1.4-2.674 0.161-3.954 0.359-0.658 0.103-1.06 0.813-1.797 0.717-0.14 2-1.22 3.07-1.07 5.38zm35.58-13.66c0.246-1.673 1.884-1.951 1.799-3.951-1.538-0.284-1.466 0.05-2.875-0.36 0 1.81-0.14 3.74 1.08 4.31zm-129.02-1.07c2.688 7.719-3.785 10.529-6.83 17.97-0.216 0.526-0.134 1.513-0.36 2.156-0.265 0.757-0.943 1.312-1.078 1.796-1.674 6.024 1.426 9.368 5.75 10.783 2.861-0.494 3.395-3.316 7.188-2.875 3.277-2.234 5.287-5.735 8.267-8.269 1.426-7.402 10.954-11.015 8.985-19.406-3.074 2.425-5.259 6.172-7.188 9.705-2.015 3.688-4.13 7.555-5.75 11.5-3.043 1.58-6.733 5.896-10.782 5.75-4.049-0.148-4.463-3.463-3.235-7.188 0.945-2.869 1.654-3.864 2.875-5.751 2.849-4.398 9.427-11.676 5.75-18.329-1.89 0.04-2.34 1.51-3.59 2.17zm44.92 5.75c0.936-1.459 1.214-3.577 1.438-5.75-0.742-1.176-1.819-2.016-3.595-2.158 0.18 3.17 0.82 5.89 2.16 7.91zm34.86 6.83c0.833-0.114 1.38 0.058 1.795 0.359v1.799c1.158 0.315 0.495-1.185 1.439-1.079-3.013-3.938-4.832-9.067-5.03-15.814-0.983-0.032-0.726 0.6-1.439 0-1.69 6.35 1.43 10.7 3.23 14.73zm5.03-1.44c0.918-2.077 2.56-3.434 2.878-6.11-1.942-1.529-3.604-3.606-4.674-6.829-1.07-0.515-1.223 0.292-2.155-0.359-1.3 4.39 0.49 11.34 3.95 13.3zm-23.72-12.22c-2.755 5.694-1.737 14.738 3.595 17.25 0.582-1.05 1.138-0.14 1.799-0.719 0.588-2.384-1.176-2.419-1.439-3.952-1.474-4.145-1.141-7.584-0.719-12.579-0.076-0.404-0.398-0.562-0.72-0.72-0.51 0.56-1.4 0.75-2.51 0.72zm81.95-0.36c0.778 2.939 0.343 5.093 1.079 8.266 0.535-0.421 0.422-1.491 1.437-1.436 0.271 0.9 0.597-0.044 2.155 0.72 0.27-3.147-0.544-5.207-1.076-7.55-1.17-0.35-1.85-0.05-3.6 0zm-4.67 3.95c2.612 0.698 0.348 4.193 1.437 6.109 1.915-0.956 2.094-6.92 1.079-10.064h-1.079c-0.03 1.77-1.49 2.11-1.44 3.95zm-82.31-2.87c-1.252 2.773-2.118 6.903-4.674 10.422-0.509 0.705-1.696 1.056-2.153 1.799-0.977 1.576-3.229 7.522-3.236 8.266-0.042 3.881 1.581 2.605 3.236 2.875-0.274-7.321 4.092-10.808 7.903-15.455-0.421-3.299 0.649-5.104 0.72-7.906h-1.8zm58.58 2.87c-0.689-0.869-0.774-2.343-2.158-2.516-0.44 1.86 1.56 3.96 2.16 2.52zm22.65 3.6c-0.196-0.524 0.418-1.86-0.359-1.799-0.49 0.46-0.56 1.76 0.36 1.8zm-123.64 2.16c1.389-0.05 1.473-1.404 1.439-2.875-0.533-0.188-0.907-0.532-1.439-0.72 0.03 1.82-0.45 2.06 0 3.6zm23 19.4c-1.385-2.737-3.622-4.879-4.672-8.266-0.449-1.448-0.219-3.174-0.718-4.671-0.329-0.988-1.346-1.954-1.797-2.875-1.058-2.165-1.372-4.967-3.595-5.75-4.26 1.403-0.67 4.334 0.36 7.546 0.88 2.743 0.719 7.022 1.438 9.345 1.026 3.319 3.388 5.955 3.953 7.905 1.893 0.501 6.742 2.562 7.189-0.719 0.95-1.07-1.6-1.72-2.15-2.5zm50.68-14.73c-1.164 1.231-2.557 2.234-3.235 3.954-0.988-0.81-1.89 0.77-2.516 1.437-1.17-0.094-1.729 0.427-1.795 1.438 0.585 3.01 3.199 0.478 4.674 1.08 1.356-1.998 3.41-3.3 5.39-4.675 0.813-2.661 2.472-4.475 2.516-7.905-0.462-0.857-1.611-1.026-2.516-1.439-1.06 1.8-2.09 3.65-2.51 6.11zm50.32-1.44c1.986 5.99 11.633 3.935 9.705-3.234-2.95 0.32-6.15 3.58-9.71 3.23zm-10.43 0c0.152 2.363-0.354 5.385 1.796 5.751 1.445-1.243 1.629-5.087 1.439-6.83-1.94-0.5-1.51 1.37-3.24 1.08zm-103.5 5.03c0.423-1.387-0.294-4.408-1.797-5.031-1.5 1.75 0.52 3.93 1.8 5.03zm29.11 5.03c0.813-4.387 3.855-7.052 5.031-10.062-3.28 0.86-5.33 7.72-5.03 10.06zm69-8.62c1.132 2.466 1.056 6.134 4.671 6.11-0.497-2.136-1.152-4.118-1.796-6.11-1.5-0.38-1.1-0.15-2.87 0zm-103.87 3.23c-0.004 4.7 3.58 7.648 7.547 7.189 0.044-1.603-0.888-2.229-1.079-3.595-2.268 0.141-3.851-2.623-5.031-4.671-0.35 0.48-0.96 0.71-1.44 1.07zm43.13 0.72c-0.041-0.918-0.658-1.258-1.076-1.796-0.07 1.03-0.04 1.96 1.08 1.8zm74.04 5.39c0.556 1.003 1.921 1.193 2.515 2.155 2.601-1.95 5.826-3.275 6.47-7.186-1.895 0.4-5.024 0.084-6.829-1.439-0.37 2.51-2.14 3.61-2.15 6.48zm-48.16 7.91c-1.644 0.532-3.258 5.797-1.079 5.753 1.516-3.381 5.967-10.018 3.595-16.175-4.11 1.33-0.32 6.81-2.51 10.42zm10.06 1.08c2.299-1.655 3.276-4.633 3.235-8.626-1.618-0.482-2.34-1.886-3.592-1.795-0.95 3.16 0.02 7.36 0.36 10.42zm-15.81-7.19c0.038 2.714 0.193 5.314 2.155 6.107 0.846-2.03 2.016-3.735 1.799-6.827-1.72-0.62-1.89 0.82-3.96 0.72zm14.38 14.37c-0.512 0.137-0.605 0.43-1.08 0 0.129 2.164-2.111 1.959-2.875 3.234-2.617-0.211-2.688 0.907-4.671 0.36-0.157 1.233 0.141 2.012 0.357 2.875 3.483 0.125 5.147-1.565 7.908-2.159 1.492-1.635 3.124-3.428 4.312-5.03 0.4-0.535 1.062-0.945 1.439-1.439 0.16-0.207 0.128-1.521 0.359-1.796 0.226-0.266 0.88-0.021 1.079-0.359 1.726-2.919 1.217-6.61 3.235-9.705-1.448-0.134-0.884-0.228-2.159-0.716-1.57 6.01-4.41 10.72-7.9 14.76zm35.22-12.58c1.775 1 1.629 0.091 3.234 0 0.27-3.01-2.87-1.31-3.23 0zm-110.34-0.35c-1.965 4.811-4.007 9.474-3.595 16.174 0.328 5.323 2.093 12.139 4.313 15.096 0.814 1.082 2.909 2.182 4.672 3.234 1.805 1.076 3.669 2.363 5.392 2.516 1.721 0.149 5.168-0.547 5.75-0.72 0.797-0.234 1.492-1.311 2.516-1.796 0.314-0.149 1.119 0.129 1.438 0 1.28-0.518 1.739-1.073 2.517-1.799 0.998-0.93 1.958-2.296 3.953-2.875 2.162-0.629 6.473-0.67 9.346-0.359 1.208 0.131 2.802 1.611 3.234 0.359-0.985-1.772-2.726-0.38-3.954-0.72-1.094-0.298-2.136-1.544-3.592-1.796-0.755-0.129-1.778-0.213-2.878-0.359-0.702-0.094-1.475-0.296-2.156-0.36-2.007-0.187-2.858 0.857-4.312 1.439-1.765 0.705-2.528 0.772-3.594 1.437-1.86 1.161-3.57 3.296-5.391 3.954-2.2 0.793-6.062 0.354-7.188-0.36-1.054-0.666-2.834-3.316-3.954-5.75-2.033-4.416-3.393-10.28-2.516-16.534 0.554-3.957 3.728-6.914 3.235-10.421-1.37 1.33-1.02-0.73-3.24-0.36zm43.13 11.14c0.723 0.356 1.456 0.701 2.158 1.079 0.434 1.988-1.026 2.088-1.079 3.595 2.027 4.434 4.542 9.918 8.985 10.78 1.834-2.641-1.229-4.755-2.875-6.109 0.135-2.665-1.813-3.741-2.875-5.391-0.22-0.342 0.184-1.07 0-1.439-0.396-0.786-2.051-0.286-1.437-1.436-0.146-0.866 0.655-0.781 0.357-1.796-1.03-2.922-0.939-6.97-1.797-10.064-0.078-0.281-0.301-0.418-0.719-0.359-2.53 2.17-1.03 7.7-0.71 11.15zm42.77-3.59c-2.047 1.132-2.249 3.755-3.598 5.391-0.421 0.512-1.315 0.573-1.795 1.076-0.702 0.737-1.133 1.749-1.796 2.519-1.983 2.29-4.44 3.475-6.83 5.03-2.524-0.27-3.887 0.95-5.75 0.359-0.474 0.846-1.003 1.633-0.72 3.235 7.263-0.406 11.907-3.428 15.814-7.189 0.585 0.635 1.033-0.205 1.439-0.72 1.381-1.758 1.322-3.062 2.516-5.391 0.047-0.09 0.965-0.236 1.076-0.359 1.579-1.734 0.748-5.938 1.438-8.266 0.793-0.199 0.469-2.082 1.437-1.079-0.275-1.161-0.994-1.881-2.155-2.155 0.29 3.15-0.91 4.83-1.08 7.54zm-35.94 3.95c2.832 0.275 4.914 1.146 7.903 0.359 1.076-2.252-0.462-3.354-1.437-4.671-0.73-0.991-0.815-1.45-1.436-2.158-0.702-0.799-0.77-1.749-1.439-2.516-2.284-0.351-3.457-1.811-5.75-2.155-0.51 3.71 0.53 8.45 2.17 11.15zm-47.8 6.83c0.619 4.806 3.467 9.103 5.392 12.221 3.769 1.863 7.66-0.474 8.985-3.235-2.585-4.271-3.394-11.737-2.515-18.33-2.194-0.201-3.16-1.632-5.032-2.155-0.443-2.073-1.28-3.753-2.516-5.033-2.31 4.46-5.17 9.88-4.31 16.53zm58.22-8.99c0.868 2.705 1.359 6.703 0.716 9.704-0.503 2.369-2.901 4.016-2.152 6.827-1.349 0.535-1.088 0.594-2.878 0.359-1.334 2.659-4.077 4.335-7.189 4.674-1.667 0.182-4.721-1.436-5.75 0.717 3.133 0.05 6.914 1.717 10.784 1.079 2.062-1.293 3.978-2.729 6.47-3.595 1.4-3.158 3.278-6.546 3.231-10.421-0.032-2.866-1.336-5.703-1.796-7.549-0.971-3.92-1.696-6.505-3.234-8.985h-1.076c-0.38 2.55 2.05 4.6 2.88 7.19zm-22.28-6.83c-0.422 1.375-3.358 0.234-2.876 2.516 2.162 1.313 2.244 4.709 4.671 5.75 0.638-2.155-0.491-5.437-0.716-7.905-0.33 1.97 0.02-0.93-1.07-0.36zm31.62 28.04c1.702-0.512 3.656-0.363 4.311-1.799 5.198-1.123 9.322-6.757 13.3-9.702 1.246-1.629 1.693-4.057 3.951-4.674 1.135-3.577 2.445-6.987 1.439-10.781-1.117-0.474-1.023 0.097-2.516 0 0.059 6.289-2.475 9.983-4.312 14.376-1.88 0.108-2.731 2.772-4.316 3.954-0.161 0.12-0.655-0.225-1.076 0-1.328 0.705-3.53 3.232-4.674 2.156-2.341 2.176-6.172 2.978-9.343 3.954-0.462-0.5-1.696-0.223-2.158-0.72-0.69 1.105-1.787 1.805-1.796 3.595 2.24 1.88 4.87 0.34 7.2-0.36zm-48.52-24.8c-1.876 6.353-0.14 12.972 0.718 19.409 2.293-0.346 4.469-0.805 6.831-1.079-1.217-6.625-1.333-11.86-1.082-18.69-2.32-0.65-4.66-1.1-6.47 0.36zm8.63 11.14c1.714 1.521 0.456 6.014 2.515 7.189 0.422-4.896-0.679-13.016 0.72-17.971-0.515-0.088-0.608-0.591-1.076-0.72-2.57 1.97-2.05 7.04-2.15 11.5zm66.13-6.47c1.702 1.649 4.124 2.586 7.189 2.875 0.778-0.86 0.948-2.726 0.356-3.954-1.415-0.714-5.268-0.564-7.186-1.796-0.22 0.86-0.52 1.64-0.36 2.88zm-80.15 5.75c0.199 3.65 1.22 8.936 3.595 9.702-0.051-4.136-1.305-10.761-1.798-16.531-0.079-0.281-0.301-0.419-0.718-0.36-0.64 1.97-1.21 4.57-1.07 7.19zm94.89-5.39c-0.125 1.925 0.158 3.437 0.72 4.674 3.007 1.252 6.417-3.097 5.75-6.47-1.43 1.98-4.57 0.15-6.47 1.8zm-7.91 11.5c-2.086 1.047-3.194 3.114-4.671 4.311-1.144 0.928-1.039-0.181-1.437 0 0 0-0.538 0.597-0.72 0.72-1.076 0.723-1.07 0.229-1.796 0.36-0.175 0.032-0.339 0.687-0.719 0.719-1.65 0.129-3.323-1.132-5.751-1.079-0.707-1.091-1.182-2.416-2.878-2.516-0.567 2.589 4.967 4.648 6.113 3.595-0.108 0.705 0.485 0.711 0.72 1.077 6.183 0.672 8.429-2.592 12.22-4.312 0.182-1.617 1.182-2.41 2.516-2.875 1.351-3.057 3.778-7.728 1.796-11.86-0.896 0.056-1.112-0.564-1.796-0.72 0 5.37-2.05 8.72-3.59 12.57zm-61.1-5.03c0.278-1.354-0.438-1.717-0.359-2.875-2.56-0.883-4.364-1.956-6.11-4.312-0.58 3.73 4.16 5.16 6.47 7.19zm53.19-2.16c0.076-0.403 0.397-0.562 0.717-0.72 0.359 3.045 4.75 2.346 6.47 2.159-1.74-1.942-5.005-1.504-7.187-3.595-0.28 0.25-0.8 2.01 0 2.16zm-43.84-0.72c-0.372 1.928 0.988 2.127 1.795 2.875 1.727-0.792 3.435-0.991 5.394 0 0.252-0.854 0.948-3.334-0.362-3.595-1.14 1.39-4.59 0.45-6.83 0.72zm-15.46 11.5c5.341 1.164 7.814 3.387 13.296 1.799-0.702-1.565-1.831-2.235-2.872-3.595-1.023-1.334-1.55-2.898-3.234-3.955-0.275-0.169-1.381-0.31-2.516-0.716-1.448-0.523-1.135-0.702-2.158-1.439-1.156-0.831-2.369-1.293-3.235-2.155-1.03 3.27 0.2 7.21 0.72 10.08zm52.84-1.08c1.404 0.152 2.96 0.152 3.592 1.077 3.633-1.287 6.654-1.647 8.266-6.11-2.205-0.009-5.329-1.366-7.546-3.231-1.97 2.32-6.89 4.63-4.31 8.26zm-34.87-5.38c0.012 2.026 2.019 2.056 2.875 3.231 0.337-0.734 1.483-0.93 1.08-3.231-2.41-0.13-2.07-0.41-3.95 0zm-27.31 13.29c0.985 4.735 8.187 3.074 9.704-0.359-3.93 0.14-6.5-0.67-9.7 0.36zm9.34 3.95c-0.869 0.501-2.214 0.62-2.875 0.72-0.837 0.123-1.951 1.407-2.156 1.437-0.418 0.062-2.252-1.624-2.158 0 4.268 2.164 5.984-0.249 11.144-1.079 0.594-1.568 3.401-1.998 2.516-3.952-3.02-0.49-4.65 1.83-6.46 2.87zm-9.7 0.72c0.082-1.521-1.284-1.594-1.797-2.519-0.08 1.53 0.75 2.14 1.8 2.52z" fill-rule="evenodd"/>
<path clip-rule="evenodd" d="m111.43 92.02c0.297 1.018-0.506 0.933-0.36 1.799-2.04 0.474-4.989 0.041-5.03 2.516-0.892 0.465-1.745-0.802-1.797 0-0.208-1.591-1.039-2.557-1.438-3.955-0.059-0.418 0.079-0.641 0.358-0.719 2.97 0.084 4.64-0.083 8.27 0.359z" fill-rule="evenodd"/>
<path clip-rule="evenodd" d="m95.975 19.419c0.927 1.708 2.039 3.235 3.954 3.954 4.665-1.851 9.431-3.241 12.219-6.11 0.751-0.152 0.952 0.246 1.438 0.36 0.145-1.486 1.073-0.208 1.079-1.436 4.114-0.442 7.069-3.952 10.063-4.314 1.781-2.24 4.127-1.921 5.75-3.954 5.95-0.035 6.857-2.2 11.502-2.516 5.754-3.451 9.254-2.199 16.531-3.235 0.751-0.105 0.726-0.064 1.438-0.719 4.773 0.222 8.924-2.094 13.656-0.717 0.365-0.234 0.371-0.828 1.079-0.719 9.138-0.006 19.076-0.015 28.751 2.155 1.539 0.345 3.259 0.012 4.675 0.36 0.672 0.167 1.456 0.927 2.155 1.079 2.767 0.603 5.847 0.395 8.266 2.156h2.875c1.422 0.67 5.484 3.074 6.47 2.156 0.805 0.994 2.071 1.524 3.954 1.439 2.334 1.843 5.405 3.682 8.266 3.954 3.112 3.598 9.354 4.06 11.86 8.266 5.958 2.428 9.38 7.394 15.096 10.062-0.492 1.571 1.392 0.767 1.076 2.159 5.984 3.72 10.163 9.246 14.378 14.735 8.135 7.107 12.139 17.125 16.892 26.955 2.185 4.522 4.013 8.318 5.39 12.937 1.75 5.856 2.265 12.019 3.596 19.41 0.008 0.052 0.663-0.05 0.719 0 0.173 0.149-0.699 0.804-0.719 0.719 0.137 0.535 0.5-0.251 0.719 0.36 0.567 1.58 0.547 4.674 0.717 6.827 0.635 7.926 0.729 18.824-0.717 27.315-0.131 0.766-0.538 0.503-0.719 1.079-0.331 1.056-0.138 2.352-0.36 3.595-0.93 5.238-3.565 9.733-3.235 14.735-0.933 0.383-0.503 2.129-1.436 2.515-0.208 3.373-1.223 7.321-2.519 9.705-0.242 0.45-0.351 1.875-1.076 1.076-3.171 10.129-8.476 18.119-13.296 26.596-2.106 0.889-2.504 3.486-4.674 4.314-3.539 7.122-10.29 11.035-15.096 16.891-2.472 0.799-4.285 3.118-6.467 5.033-2.141 1.875-4.262 3.832-6.832 5.031-0.387 0.933-1.562 1.073-1.796 2.155-4.814 1.772-7.672 5.508-12.939 6.83-3.147 2.963-8.453 3.764-12.22 6.109-4.622 0.729-7.988 1.601-11.139 2.875-10.137 1.158-20.21 3.306-31.629 2.875-1.954-0.072-5.376-0.438-8.266-0.719-1.158-0.111-2.626 0.172-3.595 0-2.396-0.428-3.237-0.857-6.829-1.437-1.343-0.216-1.287-0.912-2.516 0-2.205-1.173-4.923-1.208-7.907-2.158-0.218-0.067-1.083 0.178-1.438 0-0.231-0.114-0.505-1.018-0.718-1.076-0.61-0.167-1.617-0.029-2.876-0.36-2.958-0.777-4.482-1.371-7.188-2.155-0.32-0.094-0.769 0.123-1.078 0-0.184-0.073-0.344-0.717-0.36-0.72-1.355-0.28-3.236 0.296-4.672 0-1.649-0.339-2.834-1.19-4.312-1.799-2.365 1.182-4.253-1.19-6.468-1.076-3.99 0.205-5.78 4.332-9.345 5.03-1.755 3.03-4.84 5.44-7.907 5.391-1.911-0.029-8.375-4.29-10.782-6.109-0.129-0.097-0.731-0.018-0.718 0-0.117-0.167 0.16-0.966 0-1.076-1.522-1.065-3.264-1.346-3.954-3.235-2.807-0.312-4.165-3.978-6.11-3.954-4.698-7.763-13.403-11.516-16.891-20.486-0.765-0.553-1.338-1.298-2.157-1.795-1.138-2.577-3.11-5.499-5.031-7.909-1.544-1.937-3.375-3.401-5.392-5.391-1.173-1.158-2.016-2.478-3.953-2.516-0.493-2.781-3.456-3.618-5.032-5.391-2.185-2.459-3.567-5.463-5.75-7.908-0.84-0.117-1.484-0.43-2.157-0.717-2.458-3.893-4.559-8.14-8.266-10.784-1.23-2.547-3.334-5.335-5.032-7.905-2.258-3.422-5.162-6.388-7.906-9.345-2.47-0.767-4.193-2.278-5.392-4.314-3.321-0.871-4.653-3.732-7.907-4.671-0.458-1.893-2.572-2.123-3.593-3.235-0.316-0.345-0.081-1.047-0.36-1.438-0.186-0.258-0.941-0.352-1.078-0.717-2.245-6.078 1.265-12.311 2.515-17.61 4.566-7.83 8.422-15.68 12.939-23.721 2.159-3.843 4.165-7.151 6.469-11.503 0.703-1.325 2.132-2.592 1.797-4.312 1.654-0.143 1.277-2.316 2.875-2.515 3.469-7.494 9.128-13.823 14.017-20.489 2.091-2.849 5.44-6.201 8.266-8.985 0.196-0.19-0.126-0.808 0.36-0.717 0.249 0.044 1.552-1.772 2.515-2.875 1.528-1.749 3.327-3.442 5.032-5.394 0.78-0.889 1.794-1.661 2.516-2.515 0.872-1.03 1.395-2.337 1.797-2.875 1.946-2.606 4.873-5.074 7.547-7.546 1.319-1.22 2.337-2.503 3.595-3.595 2.565-2.226 5.816-3.682 7.906-6.47 3.348-0.795 6.555-3.653 10.423-3.954 1.597-0.129 3.254 1.153 4.677-0.006zm-37.738 122.2c0.658-1.035 0.583-1.126 0.36-2.516h-1.438c-1.211-2.623-2.299-5.37-4.673-6.829-0.589 1.152-1.202 0.915-2.515 0.72-0.224-1.393-0.297-1.483 0.36-2.519-2.754-1.196-9.097 0.368-14.735 0.359 0.49 0.945 1.323 2.852 0 3.595-2.083 0.403-1.543-1.813-2.157-2.875-2.09-0.286-2.716 0.775-4.672 0 0.081 1.278-0.243 2.152-1.078 2.516-1.237-0.202-1.786-1.091-2.157-2.156-7.03 0.375-13.114 0.875-19.408 2.156-2.28 2.407-5.329 7.025-2.156 10.783 3.343 0.173 9.218 2.062 12.938 2.876 0.86-1.714 3.266 0.032 3.595-1.799 3.89-0.164 9.016-1.016 12.578-1.437 0.219-0.859-0.45-2.608 0.36-2.875h1.797c0.414 0.424 0.407 1.27 0.36 2.155 2.568-0.895 6.007 0.649 7.188-1.079-1.421-0.073-1.989-2.53-0.719-3.234 0.538 0.421 1.47 0.447 1.797 1.079 0.193 1.272-0.581 1.573-1.078 2.155 1.973 1.029 5.076 0.497 7.906 0 1.195-0.207 2.917-1.193 3.595-1.076 0.202 0.035-0.095 0.737 0.36 0.717-0.208 0.012 1.063-1.475 1.078-0.357 0.291-0.576 1.749-1.808 2.516-0.719-0.2 0.02-0.41 0.31-0.002 0.38zm119.32-138.73c-3.664-0.12-7.646-0.164-10.783 0.36-3.92 0.655-4.926-0.088-7.546 1.079-2.357 1.047-3.743 0.626-5.75 1.076-0.56 0.126-0.869 0.907-1.438 1.08-0.544 0.161-1.345-0.129-1.797 0-1.619 0.459-2.858 0.754-4.313 1.076-1.448 0.322-2.4 1.921-3.595 2.518-0.91 0.454-2.214 0.711-3.235 1.077-0.39 0.14-0.952-0.176-1.438 0-0.266 0.099-0.716 0.951-1.078 1.079-0.328 0.114-0.468-0.43-0.718-0.36-0.087 0.026-0.231 0.667-0.359 0.72-0.297 0.117-0.518-0.462-0.72-0.36-0.224 0.111 0 0.576-0.358 0.72-5.532 2.196-9.693 3.893-13.657 7.546-1.463-0.023-1.736 1.141-3.235 1.079-0.95 1.565-1.764 2.047-4.312 2.516-1.364 1.272-2.264 3.007-4.672 3.235-0.869 1.945-2.747 2.907-4.312 4.311-1.574 1.41-2.766 3.264-4.313 4.674-0.885 0.805-2.145 1.1-2.875 1.796-0.895 0.854-1.285 1.849-2.157 2.875-4.694 5.537-9.187 10.872-13.298 16.894-8.192 11.998-14.087 25.183-17.61 41.331-4.593 21.041-3.97 49.859 2.516 68.286 1.655 4.703 2.912 8.134 4.672 11.86 0.822 1.74 1.645 3.779 2.515 5.391 1.8 3.334 4.149 6.285 6.11 9.345 2.932 4.574 5.436 9.131 8.625 12.939 1.008 1.202 2.39 2.272 3.595 3.595 2.29 2.507 4.265 5.426 6.828 7.546 2.612 2.158 5.841 3.986 7.547 7.189 2.932 1.334 5.88 3.033 8.627 5.03 2.526 1.84 4.908 4.68 8.266 4.671 0.993 1.723 3.073 2.401 4.672 3.235 1.854 0.968 3.873 1.337 5.75 2.158 1.144 0.497 2.008 1.629 3.235 2.156 2.506 1.073 6.19 1.108 8.985 2.155 1.383 0.521 2.415 1.5 3.593 1.799 1.319 0.33 3.001 0 4.314 0.359 1.327 0.36 2.308 1.469 3.595 1.796 2.12 0.541 4.533-0.021 6.826 0.36 0.182 0.029 2.173 0.547 1.796 0.359 0.283 0.141-0.111 0.626 0.362 0.717 0.764 0.149 2.322-0.173 3.235 0 1.459 0.277 2.784 0.944 4.311 1.079 2.439 0.217 5.175-0.176 7.909 0 1.41 0.091 2.884 0.614 4.312 0.72 6.832 0.503 11.249-1.208 16.894-1.079 1.428-0.948 7.552-0.603 10.421-2.156 2.235 0.369 5.73-0.927 7.906-1.796 4.388 0.308 6.785-3.004 10.781-3.234 1.808-1.664 4.159-2.779 6.112-3.595 2.866-1.199 4.159-2.296 6.47-3.595 1.677-0.944 3.309-1.544 4.671-2.516 1.431-1.018 2.598-2.076 3.952-3.234 1.217-1.039 2.55-2.627 4.313-2.875 4.464-5.722 11.58-8.786 15.455-15.096 0.972 0.407 0.746-0.189 1.437-0.72 1.685-1.289 2.369-2.229 3.598-3.954 0.771-1.085 1.386-2.617 2.152-3.592 0.787-0.997 2.088-1.623 2.878-2.515 1.588-1.799 4.083-4.979 4.671-7.189 0.144-0.529 0.441-0.05 0.72-0.36 1.214-1.359 1.998-3.111 2.875-5.03 1.884-4.13 3.434-8.192 5.75-11.86 1.562-4.99 3.539-9.312 5.031-15.095 0.327-2.975 1.149-8.064 2.878-10.784 4.387-22.363 2.07-49.342-4.317-68.646-2.966-4.499-4.13-9.866-6.826-14.375-2.714-4.54-5.306-8.897-7.909-13.299-1.941-1.05-2.966-3.019-4.671-4.312-0.664-3.047-3.454-3.975-4.313-6.829-1.39 0.193-1.48-0.916-2.516-1.077-1.998-2.901-4.744-5.557-7.546-7.909-2.729-2.29-5.423-5.045-8.626-6.11 0.138-1.217-1.591-0.564-1.079-2.156-4.194-1.108-6.107-4.311-8.985-6.11-0.392-0.246-0.895-0.427-1.438-0.72-1.211-0.652-2.706-1.243-3.592-1.796-1.123-0.699-1.617-1.223-2.159-1.439-1.123-0.447-0.836-0.225-1.436-0.716-0.281-0.234-0.971 0.038-0.717-0.72-4.188-0.053-5.58-4.074-10.424-3.595 0.342-1.661-2.34-0.298-2.158-1.796-4.99-0.497-9.605-3.121-14.736-4.314-3.132-0.729-6.867-0.465-10.061-1.436-0.585-0.178-0.764-0.605-1.439-0.72-7.254-1.246-16.017-1.12-21.925-1.079-0.32-0.038-0.39 0.255-0.68 0.322zm-85.898 19.05c-3.35 0.623-4.665 2.299-8.625 2.875-2.035 3.235-6.106 4.437-8.267 7.546-0.877 0.678-2.475 0.641-2.156 2.515 1.161 0.828 2.144-0.898 3.235 0 0.399-0.918 1.097-1.539 2.156-1.796 1.579 1.498 5.781 0.635 8.625 0.36 0.642-0.848-1.049-3.551 1.439-3.235 1.417-0.1 0.104 2.53 1.078 2.875 1.767-0.982 4.089 0.179 5.75-0.359 0.227-2.425 0.483-4.894 0-8.625-1.968 0.169-1.663-1.931-3.235-2.156zm-25.517 17.61c-2.107 3.642-5.689 5.812-7.188 10.062 4.115-0.916 8.026-1.182 11.5-2.155 0.898-0.252 1.54-0.983 2.517-1.08 0.847-0.082 1.715 0.594 2.515 0.72 1.663 0.266 1.957-0.188 2.875-0.36 1.604-0.298 3.75-0.097 5.032 0 0.237-0.959 0.151-2.243 0.718-2.875 1.515-0.076 1.267 1.608 2.157 2.158 1.711-1.685 5.518-3.729 3.593-6.829-0.289 0.436-2.193 0.541-2.155-1.08-0.208-1.764 2.271-0.842 2.515-2.155-6.8-0.308-17.231 1.749-24.079 3.594zm2.515 10.421c-0.181 1.018-1.022 1.375-1.796 1.799-0.567-0.032-0.282-0.918-1.079-0.72-4.76 1.635-10.619-0.21-12.938 4.312 1.479 0.579 3.207-0.57 5.391-0.357 0.62-1.357 2.985-0.576 4.672-1.079 2.17-0.649 3.937-0.5 6.47-0.72 0.807-0.07 1.312-0.646 1.797-0.72 2.794-0.406 6.37 1.784 8.985 0 0.894-0.055 1.113 0.565 1.797 0.72 0.69-0.506 0.649-1.746 1.078-2.515-5.676-2.428-8.674-1.062-14.377-0.72zm5.392 12.58c-1.205-0.479-2.315-2.992-0.36-3.594 0.473 0.368 1.325 0.354 1.797 0.719 0.254-1.93-0.409-2.945-0.719-4.314-1.774-0.015-2.437-0.073-3.233-0.357-0.195 1.272 1.272 0.883 1.078 2.156-0.563 0.875-1.43 1.445-2.875 1.436-0.585-1.158-0.173-1.945 0-3.235-2.632-0.038-4.074 0.281-6.47 1.079-0.079 1.158 0.636 1.521 0.36 2.875-1.155-0.316-0.493 1.185-1.438 1.08-1.295-0.877-0.076-3.109-0.719-3.955-0.566 1.173-1.711 0.474-2.875 0.36-0.037 0.921-1.34 0.576-1.797 1.079-2.302-0.646-2.878 0.72-6.468 0.36-2.884 3.103-6.043 5.938-8.267 9.702 7.797 0.968 18.842-2.928 23.72-1.436 2.501-1.164 5.553-0.579 7.548-0.36 1.581-0.348 3.526-4.817 1.797-5.031 0.904 0.36-0.978 0.898-1.079 1.436zm-17.611 7.549c-0.564-0.155-0.307-1.132-1.438-0.72-2.507 0.649-4.719 0.281-6.83 1.796-2.382-0.813-3.658-0.085-4.672 0.36-0.54 0.237-0.913 0.131-1.438 0.36-5.749 2.486-10.176 8.04-12.22 13.299 0.72 1.077 1.898 1.697 3.235 2.156-0.219-1.418 1.974-0.424 2.875-0.719 0.082-1.506 1.141 0.21 1.438-1.08 3.944 0.383 10.146-2.597 14.736-2.515 1.267-1.486 5.135-0.375 7.546-0.72 0.351-0.845 1.024-1.372 1.439-2.155 1.127 1.588 2.103 4.147 5.031 2.875 2.568-3.785 1.227-9.108 0.36-14.016-5.085-0.132-6.027-1.018-10.062 1.079zm5.75 16.172c-1.636-1.749-2.511-1.41-5.032-1.077-1.065-1.503-2.204-0.111-3.235 0-6.284 0.673-11.173 2.255-16.173 3.592-0.63 0.17-2.903 0.717-2.875 0.72-0.177-0.015 0.089-0.804-0.36-0.72 0.174-0.032-0.395 0.752-0.358 0.72-1.356 1.176-5.329-0.006-7.189 0.36-0.353 1.573-3.067 2.67-1.796 4.671 6.442-1.647 8.636-0.345 14.375-2.875-0.747-1.349-0.007-2.39 1.078-2.875 0.794 0.646 0.877 1.998 1.438 2.875 1.496-0.778 3.576-0.977 5.75-1.077 0.333-0.866 0.657-1.74 1.08-2.515 1.067 0.249 1.455 1.179 2.155 1.796 3.228-2.121 9.003-1.354 13.298-1.08 0.328-0.795 0.798-2.393 0.36-2.875-0.955 0.003-2.052-0.135-2.516 0.36zm-26.595 8.984c-2.285 2.036-6.995 0.746-9.345 1.799-1.534 0.685-2.898 2.846-3.954 3.232-0.714-0.597-0.457 0.035-1.438 0-1.3 2.293-2.684 4.504-3.593 7.189 0.854 0.825 1.544 1.811 2.875 2.156 5.567-0.901 12.002-1.98 18.688-2.516 0.848-0.111 0.669-1.249 1.797-1.076 0.004 1.404 0.44 0.152 0.719 0-0.369 0.202 0.69 0.003 0.718 0 3.979-0.483 7.619 0.09 11.502-0.36 0.145-0.933 1.119-1.039 1.796-1.439 2.089 0.667 2.398 1.223 4.672 0.719 0.801-2.313 1.604-4.627 1.797-7.549-1.578-0.676-0.726-2.761-1.438-3.952-0.656-1.1-2.435-0.409-2.515-2.158-8.167 0.234-15.175 3.329-22.281 3.963zm6.828 14.736c-0.294-0.904-1.896-0.5-2.516-1.076-4.068 1.805-11.693 1.442-15.814 3.235-3.849-1.621-8.491 2.553-12.22 4.311-0.927 2.068-2.84 3.15-3.233 5.75 3.14 5.858 11.464 1.105 17.251 1.439 0.5-0.459 0.156-1.761 1.078-1.799 3.543 1.375 4.334-0.339 7.547 1.079 0.044-1.515 2.758-0.356 3.955-0.719 0.301-0.895 0.469-1.925 0.358-3.235-1.786 0.348-2.334-0.541-2.156-2.156 0.36 0 0.427-0.292 0.718-0.36 0.894-0.052 1.491 0.188 1.797 0.72v2.156c1.237 0.202 1.786 1.091 2.157 2.155 2.363-0.084 4.535 0.018 6.468 0.36 0.266-1.556-0.812-2.226 0.36-2.875h1.438c0.494 1.088-0.171 1.284 0 2.875 4.043 0.105 5.262 0.833 8.625 1.439 0.684-2.67 0.784-5.926 0.719-9.345-1.009-1.518-1.598-3.232-2.875-3.595-0.44 0.998-0.523 2.352-1.438 2.875-0.107-1.451-1.594 0.24-1.797-1.436 0.108-1.53 2.15-1.524 1.078-3.235-3.579-0.05-8.021-1.24-11.5 1.45zm-37.018 21.21c0.512 0.14 0.605 0.433 1.078 0 0.762 0.269 1.538-0.529 2.515-0.72 1.831-0.352 3.675 0.23 5.75 0 1.243-0.138 2.695-0.857 3.955-1.076 1.44-0.252 2.872-0.22 4.312-0.36 9.716-0.944 18.864-2.562 27.315-1.438 3.066 0.409 5.506 1.021 8.266 1.079 0.903-2.82-1.25-2.577-2.875-3.235-2.692-1.088-7.607-1.352-12.578-1.436-2.552-0.047-4.115 0.833-6.11 1.076-1.891 0.231-3.836-0.234-5.752 0-1.041 0.129-2.207 0.916-3.233 1.079-0.4 0.064-1.186-0.386-1.438-0.359-0.839 0.09-1.439 0.643-2.157 0.719-3.917 0.404-7.148 0.696-10.422 1.436-3.115 0.705-7.728-0.959-8.985 2.516-0.003 0.36 0.29 0.42 0.359 0.72zm44.566 14.37c-2.097 0.214-4.167 0.237-5.75 0.72-0.621 0.19-2.96-0.459-4.312 0.359 0.168-1.477-0.904 0.281-1.438-0.719-2.747 1.029-4.624 1.006-8.627 1.079-0.566 0.032-0.281 0.915-1.078 0.72-5.104 0.345-7.875 0.795-12.579 2.515-0.253 1.065-1.072 1.565-0.719 3.235 2.916 3.074 7.502 4.478 9.345 8.625h11.141c0.481-0.359 0.706-0.971 1.438-1.079 3.176 0.474 5.559-1.261 8.267-1.796 5.265-1.044 10.449-0.196 15.455-0.359 0.916-3.445-0.79-7.02-1.797-9.705-2.1-1.205-2.619-1.778-4.312-3.234-1.272 0.827-1.374 2.857-2.875 2.515-0.614-0.345-0.788-1.129-1.079-1.796 0.66-0.798 1.479-1.185 2.517-0.719-0.193-1.91-2.537-0.46-3.597-0.35zm-6.11 17.25c-5.558 1.088-8.771 2.22-14.735 2.875 0.177 6.725 6.77 1.582 10.422 1.437 2.947-2.139 6.498-1.893 10.063-2.516 0.51-0.088 0.611-0.582 1.078-0.72 1.404-0.412 5.236-1.299 7.189-1.436 1.561-0.111 4.051 1.682 4.672-1.08-6.433-0.03-11.99 0.13-18.689 1.44zm0.719 4.68c-1.957 1.518-4.944 2.004-7.547 2.875-1.609 2.765-2.832 5.797 0 7.549 0.244 0.149 1.742-0.4 2.515 0 0.323 0.167 0.278 0.98 0.718 1.077-0.227-0.05 0.316-0.717 0.719-0.72 0.971-0.003 2.988 1.465 5.032 1.438 2.005-0.026 4.183-1.597 5.391-1.438 0.19 0.026-0.098 0.804 0.36 0.72-0.136 0.026 0.35-0.711 0.359-0.72 1.215-0.846 2.786-0.182 3.953-0.357 3.533-0.535 6.86-2.199 10.063-2.518 0.158-1.234-0.142-2.013-0.36-2.875-4.026 0.049-6.671-4.005-8.625-7.187-3.508 1.39-7.275 2.54-12.578 2.15zm17.251 12.58c-0.063-1.428-0.355-0.123-0.718 0-2.484 0.836-7.572-0.509-8.985 1.436-0.327-0.982-1.26 0.638-1.797-0.359-0.174 0.427-0.383 0.816-0.72 1.079-1.992-0.471-4.937 0.991-5.75 2.875v1.079c2.082 2.109 3.934 4.452 5.75 6.83 1.265 0.649 2.2-0.579 3.235-0.72 0.023-0.003 0.836 0.749 1.078 0.72-0.039 0.003 1.239-0.544 1.797-0.72 1.471-0.465 1.926-0.418 2.875-1.079 0.143-0.1 1.018-0.352 1.078-0.36 3.235-0.497 5.291-1.541 7.907-1.076 1.717-1.354 2.52-1.412 5.032-1.799-0.466-5.282-6.799-4.7-8.267-8.984-1.389 0.12-1.417 0.19-2.515 1.07zm11.86 10.78c-3.815 0.869-6.939 1.729-10.782 2.159-1.117 1.261-3.113 1.603-4.312 1.076-0.351 0.368-0.711 0.729-1.078 1.079-2.387-0.073-2.596 0.231-4.312 0.359 0.003 1.313 0.709 1.925 1.438 2.516 1.259 0.299 3.387-1.562 5.031-0.72 3.51-3.029 9.684-2.488 12.939-5.03 0.74-0.22 2.497 0.579 2.156-0.72-0.107-1.27-0.975 0.01-1.08-0.73zm6.11 7.9h-1.797c-0.339-2.281-5.742-4.273-6.468-2.519-4.382 0.532-7.812 2.013-11.143 3.595-0.985 0.544-2.063-0.436-2.515 1.079 3.391 2.118 5.556 5.467 7.906 8.626 3.269 1.018 4.623 1.723 8.627 1.079 2.237-2.246 6.879-1.837 10.423-3.954-0.868-3.46-3.901-4.74-5.033-7.92zm4.673 11.86c-3.664-0.167-6.292 1.989-10.783 2.875-0.241 1.679-1.796 2.486-1.797 3.951-0.002 1.854 1.932 2.756 2.157 4.674 5.235-0.807 8.452 0.431 12.938-1.079 0.081-0.026-0.068-0.649 0-0.72 0.136-0.134 0.538 0.264 0.36 0.36 1.429-0.787 2.84-0.579 4.672-1.437 1.54 0.422 1.465-0.026 2.875-0.359-1.142-6.13-8.568-3.29-10.422-8.26zm12.938 10.43c-5.749 2.346-10.629 3.425-19.408 3.954 0.325 2.341 2.986 1.805 4.312 1.796 1.756-0.012 3.592-0.812 5.032-0.359 2.135-0.988 5.481-1.226 8.625-1.796 1.538-0.277 3.704 0.22 4.312-1.079 0.74-1.34-2.12-2.47-2.877-2.51zm2.877 8.98c-2.294-0.085-3.829-1.896-6.11-2.155-4.37-0.501-8.533 2.989-11.5 1.436-0.312 2.349 1.265 2.811 2.515 3.595 0.951 3.004 4.047 3.861 5.392 6.47 0.423 0.056 1.02-0.062 1.078 0.359 6.341-1.506 9.2-4.475 15.095-5.03 1.204-1.995 3.761-0.477 4.672-2.519 0.149-0.997-2.396-2.387-3.594-3.231 0.249 0.965-0.743 0.693-1.078 1.076-1.75-1.78-4.7-1.6-6.47-0.02zm5.39 7.55c-4.04 0.731-6.932 3.106-10.423 3.951 0.872 2.194 3.875 3.996 5.391 5.034 2.194 1.5 4.7 2.629 7.188 3.951 5.819-0.889 8.138-5.279 7.189-12.937-4.62-1.27-6.65 1.36-9.35 0.01z" fill-rule="evenodd"/>
<path clip-rule="evenodd" d="m151.68 54.283c0.826 0.834 1.092-0.155 2.875 0.72 0.54 3.194 1.853 5.218-1.438 6.467-0.345-0.945-0.695-3.077 0-3.952-0.271-0.482-2.659-0.652-2.516-0.359-1.08-0.998 0.77-2.095 1.08-2.876z" fill-rule="evenodd"/>
<metadata><rdf:RDF><cc:Work><dc:format>image/svg+xml</dc:format><dc:type rdf:resource="http://purl.org/dc/dcmitype/StillImage"/><cc:license rdf:resource="http://creativecommons.org/licenses/publicdomain/"/><dc:publisher><cc:Agent rdf:about="http://openclipart.org/"><dc:title>Openclipart</dc:title></cc:Agent></dc:publisher><dc:title>spaghetti and meatballs</dc:title><dc:date>2007-11-18T16:19:20</dc:date><dc:description>Ready-To-Use Food And Drink Spot Illustrations by Susan Gaber 1982&#xD;\n&#xD;\nBook as a whole is under copyright but contents are copyright-free&#xD;\n&#xD;\nFrom archive.org</dc:description><dc:source>http://openclipart.org/detail/8673/spaghetti-and-meatballs-by-johnny_automatic-8673</dc:source><dc:creator><cc:Agent><dc:title>johnny_automatic</dc:title></cc:Agent></dc:creator><dc:subject><rdf:Bag><rdf:li>clip art</rdf:li><rdf:li>clipart</rdf:li><rdf:li>externalsource</rdf:li><rdf:li>food</rdf:li><rdf:li>image</rdf:li><rdf:li>media</rdf:li><rdf:li>pasta</rdf:li><rdf:li>png</rdf:li><rdf:li>public domain</rdf:li><rdf:li>spaghetti</rdf:li><rdf:li>svg</rdf:li></rdf:Bag></dc:subject></cc:Work><cc:License rdf:about="http://creativecommons.org/licenses/publicdomain/"><cc:permits rdf:resource="http://creativecommons.org/ns#Reproduction"/><cc:permits rdf:resource="http://creativecommons.org/ns#Distribution"/><cc:permits rdf:resource="http://creativecommons.org/ns#DerivativeWorks"/></cc:License></rdf:RDF></metadata></svg>
